<svg width="96" height="96" viewBox="0 0 96 96" fill="none" xmlns="http://www.w3.org/2000/svg">
<path d="M32.4 55.14V54.48C32.3999 54.3872 32.4317 54.2972 32.49 54.225C32.5355 54.1521 32.6041 54.0966 32.685 54.0675C32.7912 54.0264 32.9088 54.0264 33.015 54.0675C33.0659 54.0854 33.1124 54.1141 33.1513 54.1517C33.1901 54.1892 33.2204 54.2347 33.24 54.285V54.3525C33.243 54.3749 33.243 54.3976 33.24 54.42L33.345 58.17C33.3514 58.2874 33.3335 58.4048 33.2925 58.515C33.2664 58.5698 33.2288 58.6183 33.1822 58.6571C33.1355 58.6959 33.0811 58.7242 33.0225 58.74C32.9674 58.766 32.9072 58.7796 32.8462 58.7796C32.7853 58.7796 32.7251 58.766 32.67 58.74C32.5659 58.6774 32.4744 58.596 32.4 58.5L30 55.62C29.9815 55.6029 29.9663 55.5825 29.955 55.56L30 55.5C29.9756 55.4511 29.9628 55.3972 29.9628 55.3425C29.9628 55.2878 29.9756 55.2339 30 55.185C30.0579 55.0828 30.1513 55.0054 30.2625 54.9675C30.3485 54.9446 30.439 54.9446 30.525 54.9675C30.615 54.9863 30.6965 55.0337 30.7575 55.1025L31.185 55.6125L32.4 55.14ZM31.65 56.19L32.3175 57.075C32.3827 57.1545 32.4404 57.2399 32.49 57.33L32.64 57.6075C32.64 57.51 32.595 57.4125 32.5725 57.3C32.5507 57.1986 32.5357 57.0959 32.5275 56.9925L32.46 55.8825L31.65 56.19Z" fill="url(#paint0_linear_47_179)"/>
<path d="M25.5 57.45C25.4786 57.2369 25.4912 57.0217 25.5375 56.8125C25.5748 56.6054 25.6653 56.4116 25.8 56.25C25.9465 56.0666 26.134 55.9202 26.3475 55.8225C26.6194 55.6898 26.9153 55.6132 27.2175 55.5975L27.915 55.53C27.9773 55.5211 28.0407 55.5252 28.1014 55.542C28.1621 55.5588 28.2186 55.5879 28.2675 55.6275C28.3156 55.6627 28.3557 55.7076 28.3854 55.7593C28.4152 55.8109 28.4337 55.8682 28.44 55.9275L28.7775 59.4C28.7815 59.4586 28.7735 59.5173 28.7542 59.5727C28.7349 59.6282 28.7045 59.6791 28.665 59.7225C28.6239 59.7707 28.5734 59.8102 28.5168 59.8385C28.4601 59.8669 28.3982 59.8835 28.335 59.8875L27.6375 59.955C27.3398 59.9955 27.0371 59.9802 26.745 59.91C26.5188 59.8546 26.3067 59.7524 26.1225 59.61C25.9649 59.4772 25.8393 59.3105 25.755 59.1225C25.6717 58.9297 25.621 58.7244 25.605 58.515L25.5 57.45ZM26.3625 57.3675L26.4675 58.4325C26.478 58.5436 26.5059 58.6524 26.55 58.755C26.5941 58.8502 26.6551 58.9365 26.73 59.01C26.8136 59.0833 26.9141 59.1349 27.0225 59.16C27.1665 59.1839 27.3135 59.1839 27.4575 59.16H27.8775L27.6075 56.3625L27.1875 56.4075C27.0413 56.4159 26.8983 56.4542 26.7675 56.52C26.6617 56.567 26.5708 56.6423 26.505 56.7375C26.442 56.8247 26.3985 56.9245 26.3775 57.03C26.3511 57.1405 26.3385 57.2539 26.34 57.3675H26.3625Z" fill="url(#paint1_linear_47_179)"/>
<path d="M23.64 55.9875L23.25 59.6625C23.2428 59.7146 23.2251 59.7647 23.1981 59.8098C23.171 59.855 23.1351 59.8941 23.0925 59.925C23.0025 59.993 22.8893 60.0226 22.7775 60.0075C22.6623 59.9966 22.5553 59.9431 22.4775 59.8575C22.4419 59.8183 22.4154 59.7718 22.3999 59.7213C22.3843 59.6707 22.3801 59.6174 22.3875 59.565L22.7775 55.89C22.7847 55.8379 22.8023 55.7878 22.8294 55.7426C22.8565 55.6975 22.8924 55.6584 22.935 55.6275C23.028 55.5598 23.1434 55.5303 23.2575 55.545C23.3137 55.5495 23.3685 55.565 23.4187 55.5908C23.4689 55.6165 23.5135 55.6519 23.55 55.695C23.5836 55.7354 23.6088 55.782 23.6243 55.8322C23.6397 55.8824 23.6451 55.9352 23.64 55.9875Z" fill="url(#paint2_linear_47_179)"/>
<path d="M17.5875 55.935C17.6534 55.7295 17.7495 55.5349 17.8725 55.3575C17.9992 55.1882 18.1602 55.0477 18.345 54.945C18.5529 54.8412 18.7803 54.7824 19.0125 54.7725C19.3161 54.7666 19.6183 54.8149 19.905 54.915L20.5725 55.1325C20.6318 55.1511 20.6868 55.1812 20.7344 55.2211C20.782 55.261 20.8213 55.3099 20.85 55.365C20.8827 55.4156 20.9036 55.4728 20.9114 55.5324C20.9192 55.5921 20.9136 55.6528 20.895 55.71L19.815 59.025C19.7969 59.0818 19.7668 59.134 19.7267 59.178C19.6866 59.222 19.6374 59.2568 19.5825 59.28C19.4641 59.325 19.3334 59.325 19.215 59.28L18.5475 59.0625C18.2584 58.9754 17.9868 58.8383 17.745 58.6575C17.5614 58.5195 17.4103 58.3428 17.3025 58.14C17.2077 57.9543 17.1589 57.7485 17.16 57.54C17.1593 57.3311 17.1923 57.1235 17.2575 56.925L17.5875 55.935ZM18.4125 56.1975L18.0825 57.2175C18.0474 57.324 18.0296 57.4354 18.03 57.5475C18.0329 57.6557 18.0592 57.7621 18.1071 57.8592C18.155 57.9563 18.2234 58.0418 18.3075 58.11C18.4224 58.1972 18.5519 58.2632 18.69 58.305L19.095 58.4325L19.9575 55.7625L19.56 55.635C19.4204 55.586 19.2729 55.5632 19.125 55.5675C19.0085 55.5713 18.8949 55.6049 18.795 55.665C18.7036 55.7211 18.6245 55.7951 18.5625 55.8825C18.5004 55.9813 18.4501 56.087 18.4125 56.1975Z" fill="url(#paint3_linear_47_179)"/>
<path d="M15.585 53.9475L16.095 53.5275C16.1708 53.4713 16.2632 53.4422 16.3575 53.445C16.4415 53.4426 16.5245 53.4633 16.5975 53.505C16.6955 53.5641 16.7677 53.6578 16.8 53.7675C16.8239 53.8166 16.8363 53.8704 16.8363 53.925C16.8363 53.9796 16.8239 54.0334 16.8 54.0825L16.755 54.135C16.7464 54.1571 16.7305 54.1756 16.71 54.1875L13.7775 56.4975C13.687 56.5724 13.5824 56.6285 13.47 56.6625C13.4099 56.6733 13.3483 56.6715 13.2889 56.6573C13.2295 56.6431 13.1737 56.6168 13.125 56.58C13.0708 56.5523 13.0233 56.5131 12.9857 56.4652C12.9482 56.4173 12.9215 56.3618 12.9075 56.3025C12.8854 56.186 12.8854 56.0665 12.9075 55.95L13.8075 52.3275C13.8011 52.3055 13.8011 52.282 13.8075 52.26L13.845 52.2C13.8725 52.1529 13.9104 52.1128 13.956 52.0829C14.0015 52.053 14.0534 52.034 14.1075 52.0275C14.2238 52.0152 14.3407 52.0444 14.4375 52.11C14.5094 52.1618 14.5663 52.2316 14.6025 52.3125C14.6283 52.4006 14.6283 52.4944 14.6025 52.5825L14.475 53.25L15.585 53.9475ZM14.28 53.9475L13.965 55.005C13.9402 55.1059 13.905 55.2039 13.86 55.2975L13.7325 55.5825L13.935 55.3425C14.0036 55.2686 14.0762 55.1985 14.1525 55.1325L15.0075 54.3825L14.28 53.9475Z" fill="url(#paint4_linear_47_179)"/>
<path d="M10.7025 50.3775C10.6186 50.4431 10.5603 50.536 10.5375 50.64C10.525 50.7094 10.525 50.7806 10.5375 50.85C10.5596 50.9244 10.5872 50.9971 10.62 51.0675L10.7175 51.3C10.785 51.4425 10.8525 51.5925 10.9125 51.735C10.9744 51.8778 11.0124 52.0298 11.025 52.185C11.0395 52.3431 11.0164 52.5025 10.9575 52.65C10.8837 52.8256 10.7708 52.9821 10.6275 53.1075C10.5033 53.2333 10.3529 53.3302 10.1869 53.3911C10.021 53.4521 9.84359 53.4756 9.66749 53.46C9.28947 53.4063 8.94614 53.2105 8.70748 52.9125C8.63998 52.845 8.57249 52.755 8.48249 52.6425C8.3986 52.5297 8.32577 52.4092 8.26499 52.2825C8.20697 52.1678 8.17134 52.043 8.15999 51.915C8.15171 51.8595 8.1577 51.8029 8.17738 51.7504C8.19707 51.6979 8.2298 51.6513 8.27249 51.615C8.34871 51.5475 8.4483 51.5125 8.54998 51.5175C8.60829 51.521 8.66519 51.5369 8.7169 51.564C8.76862 51.5912 8.81398 51.629 8.84999 51.675C8.88975 51.7097 8.92061 51.7534 8.93999 51.8025L9.00749 51.945C9.03428 52.009 9.06432 52.0716 9.09749 52.1325C9.14361 52.2136 9.19898 52.2891 9.26249 52.3575C9.31228 52.4107 9.36759 52.4585 9.42748 52.5C9.48091 52.5416 9.5421 52.5722 9.60749 52.59C9.67113 52.6087 9.73884 52.6087 9.80248 52.59C9.87852 52.5705 9.94825 52.5317 10.005 52.4775C10.0473 52.4463 10.083 52.4071 10.11 52.362C10.1371 52.317 10.1549 52.267 10.1625 52.215C10.1757 52.1456 10.1757 52.0744 10.1625 52.005C10.1418 51.9228 10.1142 51.8425 10.08 51.765C10.08 51.6975 10.02 51.6225 9.98998 51.5625L9.79499 51.12C9.7356 50.9737 9.6977 50.8196 9.68249 50.6625C9.66905 50.5074 9.68953 50.3513 9.74249 50.205C9.81656 50.0317 9.92946 49.8777 10.0725 49.755C10.2147 49.6159 10.3865 49.5108 10.575 49.4475C10.747 49.3934 10.9283 49.3755 11.1075 49.395C11.2927 49.4196 11.4711 49.4808 11.6325 49.575C11.815 49.6809 11.9795 49.815 12.12 49.9725C12.2087 50.0724 12.2914 50.1776 12.3675 50.2875C12.4556 50.4081 12.5287 50.5391 12.585 50.6775C12.6401 50.7981 12.6731 50.9277 12.6825 51.06C12.6897 51.1136 12.6839 51.1681 12.6657 51.219C12.6474 51.27 12.6171 51.3157 12.5775 51.3525C12.5013 51.42 12.4017 51.455 12.3 51.45C12.1909 51.4445 12.0884 51.396 12.015 51.315C11.9815 51.2794 11.9537 51.239 11.9325 51.195L11.8575 51.0375C11.8237 50.9521 11.7836 50.8694 11.7375 50.79C11.6856 50.6826 11.6173 50.5839 11.535 50.4975C11.4268 50.3635 11.2759 50.2708 11.1075 50.235C11.0336 50.2268 10.9588 50.2354 10.8887 50.26C10.8186 50.2847 10.755 50.3249 10.7025 50.3775Z" fill="url(#paint5_linear_47_179)"/>
<path d="M7.37999 46.5C7.42547 46.4775 7.47551 46.4658 7.52624 46.4658C7.57697 46.4658 7.62702 46.4775 7.67249 46.5C7.77475 46.5314 7.86081 46.6013 7.91249 46.695L8.66249 48.045C8.71882 48.137 8.73762 48.2471 8.71499 48.3525C8.70378 48.4017 8.68257 48.448 8.65267 48.4887C8.62278 48.5293 8.58484 48.5633 8.54122 48.5886C8.4976 48.614 8.44923 48.63 8.39913 48.6359C8.34903 48.6417 8.29826 48.6371 8.24999 48.6225C8.14424 48.5857 8.056 48.5109 8.00249 48.4125L7.25249 47.07C7.22345 47.0249 7.2044 46.9742 7.19664 46.9211C7.18888 46.8681 7.19258 46.814 7.20749 46.7625C7.21217 46.7079 7.23039 46.6552 7.26051 46.6094C7.29063 46.5636 7.33169 46.526 7.37999 46.5Z" fill="url(#paint6_linear_47_179)"/>
<path d="M6.6975 42.93C6.59216 42.9495 6.49825 43.0085 6.435 43.095C6.39925 43.1573 6.3763 43.2262 6.3675 43.2975C6.36352 43.3725 6.36352 43.4476 6.3675 43.5225C6.3675 43.605 6.3675 43.6875 6.3675 43.7775C6.3675 43.8675 6.3675 44.1 6.3675 44.2575C6.36266 44.4146 6.32963 44.5696 6.27 44.715C6.21644 44.8609 6.12905 44.992 6.015 45.0975C5.87193 45.2229 5.70289 45.3151 5.52 45.3675C5.35397 45.4292 5.17628 45.4531 4.99985 45.4376C4.82341 45.422 4.65266 45.3673 4.5 45.2775C4.18499 45.0618 3.95858 44.7395 3.8625 44.37C3.8625 44.28 3.81 44.1675 3.78 44.0325C3.76888 43.8927 3.76888 43.7523 3.78 43.6125C3.74955 43.4874 3.73942 43.3583 3.75 43.23C3.76787 43.1774 3.79844 43.1301 3.83899 43.0921C3.87955 43.0542 3.92884 43.0268 3.9825 43.0125C4.02866 42.9925 4.07844 42.9821 4.12875 42.9821C4.17907 42.9821 4.22884 42.9925 4.275 43.0125C4.32531 43.0414 4.36921 43.0803 4.40402 43.1267C4.43884 43.1731 4.46384 43.2261 4.4775 43.2825C4.50559 43.3514 4.51339 43.4268 4.5 43.5V43.6575C4.49251 43.7248 4.49251 43.7927 4.5 43.86C4.50213 43.9517 4.51728 44.0426 4.545 44.13C4.56722 44.2031 4.5974 44.2735 4.635 44.34C4.66654 44.4005 4.70989 44.4541 4.7625 44.4975C4.81501 44.5376 4.87703 44.5635 4.9425 44.5725C5.01846 44.5944 5.09905 44.5944 5.175 44.5725C5.22595 44.5625 5.27426 44.5419 5.31686 44.5122C5.35947 44.4825 5.39544 44.4443 5.4225 44.4C5.45622 44.3368 5.47904 44.2683 5.49 44.1975C5.49646 44.1151 5.49646 44.0324 5.49 43.95V43.725C5.49 43.56 5.49 43.4025 5.49 43.245C5.52194 43.0732 5.57747 42.9066 5.655 42.75C5.70856 42.6041 5.79595 42.473 5.91 42.3675C6.04906 42.2405 6.21606 42.148 6.3975 42.0975C6.58265 42.0213 6.78264 41.988 6.9825 42C7.16381 42.0212 7.33807 42.0827 7.4925 42.18C7.64742 42.2824 7.78007 42.4151 7.8825 42.57C8.002 42.7419 8.09315 42.9318 8.1525 43.1325C8.19093 43.263 8.22099 43.3957 8.2425 43.53C8.25704 43.6771 8.25704 43.8254 8.2425 43.9725C8.23853 44.1057 8.21321 44.2374 8.1675 44.3625C8.14878 44.4134 8.11883 44.4593 8.07987 44.497C8.04091 44.5346 7.99396 44.563 7.9425 44.58C7.89634 44.6 7.84657 44.6104 7.79625 44.6104C7.74594 44.6104 7.69616 44.6 7.65 44.58C7.60197 44.5555 7.55932 44.5216 7.52454 44.4804C7.48977 44.4392 7.46358 44.3915 7.4475 44.34C7.43964 44.2903 7.43964 44.2397 7.4475 44.19C7.44407 44.1326 7.44407 44.075 7.4475 44.0175C7.4475 43.9425 7.4475 43.8525 7.4475 43.74C7.44396 43.6227 7.42375 43.5066 7.3875 43.395C7.34811 43.2283 7.25283 43.0801 7.1175 42.975C7.05515 42.937 6.98516 42.9132 6.91254 42.9055C6.83993 42.8977 6.76649 42.9061 6.6975 42.93Z" fill="url(#paint7_linear_47_179)"/>
<path d="M5.7375 37.1475C5.94774 37.1372 6.15821 37.1626 6.36 37.2225C6.54625 37.2805 6.71808 37.3774 6.86417 37.5066C7.01025 37.6359 7.12727 37.7947 7.2075 37.9725C7.29512 38.1793 7.34344 38.4005 7.35 38.625C7.36676 38.8508 7.33872 39.0776 7.2675 39.2925C7.20112 39.4802 7.09927 39.6533 6.9675 39.8025C6.83069 39.9376 6.67062 40.0468 6.495 40.125C6.29905 40.2032 6.09089 40.2464 5.88 40.2525L3.3525 40.3725C3.23938 40.3757 3.12934 40.3354 3.045 40.26C2.96721 40.173 2.92213 40.0616 2.9175 39.945C2.91486 39.89 2.92348 39.835 2.94282 39.7834C2.96216 39.7318 2.99183 39.6847 3.03 39.645C3.06332 39.6027 3.10534 39.5681 3.15323 39.5435C3.20111 39.5189 3.25373 39.5049 3.3075 39.5025L5.8425 39.3825C6.03601 39.3815 6.22356 39.3155 6.375 39.195C6.446 39.1273 6.5 39.0438 6.53258 38.9512C6.56517 38.8587 6.57542 38.7598 6.5625 38.6625C6.56692 38.5652 6.54815 38.4681 6.50773 38.3795C6.4673 38.2908 6.40639 38.213 6.33 38.1525C6.16725 38.0422 5.97021 37.9943 5.775 38.0175L3.2475 38.13C3.19356 38.133 3.13961 38.1245 3.0892 38.1051C3.03878 38.0857 2.99305 38.0558 2.955 38.0175C2.912 37.9803 2.87764 37.9343 2.85432 37.8824C2.831 37.8306 2.81929 37.7743 2.82 37.7175C2.81543 37.6595 2.82236 37.6011 2.84037 37.5458C2.85839 37.4905 2.88715 37.4392 2.925 37.395C2.95954 37.3541 3.00185 37.3204 3.04948 37.296C3.09711 37.2715 3.14912 37.2567 3.2025 37.2525L5.7375 37.1475Z" fill="url(#paint8_linear_47_179)"/>
<path d="M6.22502 33.6975L6.11252 34.215L7.22252 34.455C7.27481 34.4666 7.32428 34.4885 7.36805 34.5194C7.41182 34.5503 7.44903 34.5896 7.47752 34.635C7.50798 34.6837 7.52832 34.738 7.53734 34.7947C7.54636 34.8514 7.54387 34.9093 7.53002 34.965C7.52132 35.0224 7.50084 35.0773 7.46986 35.1263C7.43888 35.1754 7.39808 35.2175 7.35002 35.25C7.30648 35.2824 7.25655 35.3052 7.20353 35.3169C7.15051 35.3285 7.09563 35.3287 7.04252 35.3175L3.54002 34.5675C3.4831 34.5551 3.42951 34.5307 3.38292 34.4957C3.33632 34.4608 3.29781 34.4162 3.27002 34.365C3.23604 34.3108 3.21323 34.2504 3.20293 34.1873C3.19262 34.1242 3.19503 34.0597 3.21002 33.9975L3.39752 33.105C3.44505 32.857 3.53921 32.6203 3.67502 32.4075C3.78081 32.2416 3.9216 32.1008 4.08752 31.995C4.24533 31.9077 4.41849 31.8517 4.59752 31.83C4.78131 31.8002 4.96872 31.8002 5.15252 31.83C5.35916 31.8663 5.55589 31.9455 5.73002 32.0625C5.8826 32.1668 6.0085 32.3055 6.09752 32.4675C6.18819 32.6373 6.24427 32.8234 6.26252 33.015C6.28485 33.2431 6.2722 33.4732 6.22502 33.6975ZM4.05752 33.75L5.34002 34.0275L5.45252 33.51C5.4978 33.34 5.48187 33.1595 5.40752 33C5.35944 32.9234 5.29467 32.8586 5.21805 32.8106C5.14142 32.7625 5.05492 32.7324 4.96502 32.7225C4.88318 32.7077 4.79936 32.7077 4.71752 32.7225C4.63873 32.7237 4.56145 32.7443 4.49252 32.7825C4.41374 32.8256 4.34677 32.8874 4.29752 32.9625C4.23544 33.0666 4.19228 33.1809 4.17002 33.3L4.05752 33.75Z" fill="url(#paint9_linear_47_179)"/>
<path d="M9.3675 28.455C9.463 28.5064 9.53539 28.5922 9.57 28.695C9.61105 28.8012 9.61105 28.9188 9.57 29.025L8.82 30.525C8.76235 30.6537 8.67181 30.7649 8.5575 30.8475C8.5005 30.8843 8.4341 30.9039 8.36625 30.9039C8.2984 30.9039 8.23199 30.8843 8.175 30.8475L5.0325 29.3475C4.9327 29.2922 4.85764 29.2011 4.8225 29.0925C4.79646 29.0334 4.78302 28.9696 4.78302 28.905C4.78302 28.8404 4.79646 28.7766 4.8225 28.7175L5.5725 27.2175C5.62241 27.1158 5.70775 27.0358 5.8125 26.9925C5.86199 26.9701 5.91568 26.9586 5.97 26.9586C6.02431 26.9586 6.078 26.9701 6.1275 26.9925C6.17483 27.0138 6.21648 27.0459 6.24906 27.0863C6.28164 27.1267 6.30423 27.1742 6.315 27.225C6.35557 27.3287 6.35557 27.4438 6.315 27.5475L5.7525 28.71L6.645 29.145L7.1625 28.095C7.21033 27.9962 7.2932 27.9186 7.395 27.8775C7.44321 27.8553 7.49567 27.8438 7.54875 27.8438C7.60183 27.8438 7.65428 27.8553 7.7025 27.8775C7.798 27.9289 7.87039 28.0147 7.905 28.1175C7.94557 28.2212 7.94557 28.3363 7.905 28.44L7.3875 29.4975L8.295 29.94L8.8875 28.725C8.93561 28.6219 9.02156 28.5414 9.1275 28.5C9.19958 28.4569 9.28469 28.4409 9.3675 28.455Z" fill="url(#paint10_linear_47_179)"/>
<path d="M10.23 23.025C10.4427 23.1938 10.5931 23.4287 10.6575 23.6925C10.7068 23.9451 10.678 24.2067 10.575 24.4425L12.075 24.63C12.1594 24.6338 12.2395 24.6685 12.3 24.7275C12.3519 24.7789 12.3882 24.8439 12.405 24.915C12.4237 24.9888 12.4237 25.0662 12.405 25.14C12.3882 25.237 12.339 25.3254 12.2654 25.3908C12.1918 25.4561 12.0983 25.4947 12 25.5L10.08 25.2375L9.8025 25.56L10.89 26.475C10.9675 26.5501 11.0132 26.6521 11.0175 26.76C11.026 26.8739 10.9902 26.9866 10.9175 27.0747C10.8448 27.1627 10.7409 27.2193 10.6275 27.2325C10.5174 27.242 10.4077 27.2099 10.32 27.1425L7.5975 24.825C7.55301 24.7865 7.51678 24.7395 7.491 24.6866C7.46522 24.6338 7.45042 24.5762 7.4475 24.5175C7.44179 24.4548 7.44954 24.3915 7.47024 24.332C7.49093 24.2725 7.52409 24.2181 7.5675 24.1725L8.265 23.3475C8.42107 23.154 8.61183 22.9912 8.8275 22.8675C8.9897 22.7717 9.17206 22.7152 9.36 22.7025C9.52598 22.6926 9.69217 22.7181 9.8475 22.7775C9.98556 22.8424 10.1142 22.9257 10.23 23.025ZM9.66 23.685C9.61214 23.6435 9.55922 23.6082 9.5025 23.58C9.43591 23.5643 9.36659 23.5643 9.3 23.58C9.21875 23.5859 9.14079 23.6145 9.075 23.6625C8.97482 23.7244 8.88603 23.803 8.8125 23.895L8.385 24.3975L9.1725 25.065L9.6225 24.5325C9.74161 24.4069 9.81777 24.2467 9.84 24.075C9.84707 23.9999 9.83415 23.9242 9.80254 23.8557C9.77092 23.7872 9.72174 23.7283 9.66 23.685Z" fill="url(#paint11_linear_47_179)"/>
<path d="M14.595 21.8025C14.5421 21.7098 14.4565 21.6403 14.355 21.6075C14.2858 21.5925 14.2142 21.5925 14.145 21.6075L13.92 21.66L13.68 21.7275L13.215 21.87C13.0658 21.9092 12.9117 21.9269 12.7575 21.9225C12.6001 21.9127 12.4466 21.8692 12.3075 21.795C12.1435 21.6963 12.0028 21.5632 11.895 21.405C11.7886 21.2644 11.7135 21.1026 11.6746 20.9306C11.6358 20.7585 11.6343 20.5802 11.67 20.4075C11.7703 20.0318 12.0087 19.7077 12.3375 19.5L12.63 19.32C12.755 19.2518 12.8854 19.1941 13.02 19.1475C13.1408 19.1068 13.2675 19.0865 13.395 19.0875C13.4507 19.0898 13.5051 19.1044 13.5544 19.1303C13.6037 19.1563 13.6466 19.1929 13.68 19.2375C13.7372 19.3235 13.7588 19.4284 13.74 19.53C13.729 19.5874 13.706 19.6419 13.6723 19.6897C13.6387 19.7376 13.5953 19.7777 13.545 19.8075C13.5052 19.8409 13.4594 19.8664 13.41 19.8825L13.26 19.9275L13.065 19.995C12.9768 20.0254 12.8935 20.0684 12.8175 20.1225C12.7572 20.1664 12.7019 20.2167 12.6525 20.2725C12.6015 20.32 12.5629 20.3792 12.54 20.445C12.5244 20.5091 12.5244 20.5759 12.54 20.64C12.5518 20.7165 12.5827 20.7887 12.63 20.85C12.6855 20.9418 12.7741 21.0089 12.8775 21.0375C12.9467 21.0525 13.0183 21.0525 13.0875 21.0375L13.335 20.985L13.545 20.9175L14.01 20.79C14.1614 20.7485 14.318 20.7283 14.475 20.73C14.6322 20.7407 14.7855 20.7841 14.925 20.8575C15.0881 20.9515 15.2269 21.0825 15.33 21.24C15.4473 21.4001 15.5268 21.5847 15.5625 21.78C15.6037 21.9551 15.6037 22.1374 15.5625 22.3125C15.5139 22.4924 15.4297 22.6607 15.315 22.8075C15.186 22.9728 15.0345 23.1192 14.865 23.2425C14.7523 23.318 14.6345 23.3857 14.5125 23.445C14.3825 23.5172 14.2439 23.5727 14.1 23.61C13.9744 23.6517 13.8421 23.6696 13.71 23.6625C13.6559 23.6616 13.6027 23.6483 13.5546 23.6236C13.5065 23.5989 13.4647 23.5634 13.4325 23.52C13.4038 23.4776 13.3837 23.4299 13.3734 23.3797C13.3631 23.3295 13.3628 23.2778 13.3725 23.2275C13.379 23.1734 13.398 23.1215 13.4279 23.076C13.4578 23.0304 13.4979 22.9924 13.545 22.965C13.5823 22.9338 13.6257 22.9108 13.6725 22.8975L13.8375 22.845L14.1 22.755C14.2121 22.7149 14.3182 22.6594 14.415 22.59C14.5616 22.5 14.6728 22.3623 14.73 22.2C14.7375 22.1279 14.7293 22.0551 14.706 21.9865C14.6827 21.9179 14.6448 21.8551 14.595 21.8025Z" fill="url(#paint12_linear_47_179)"/>
<path d="M18.1125 21L16.92 18L16.3125 18.24C16.2063 18.2811 16.0887 18.2811 15.9825 18.24C15.9108 18.2135 15.8491 18.1653 15.8061 18.1021C15.7631 18.0389 15.7409 17.9639 15.7425 17.8875C15.7494 17.8354 15.7646 17.7848 15.7875 17.7375C15.8103 17.6858 15.8406 17.6378 15.8775 17.595C15.9168 17.5519 15.9655 17.5185 16.02 17.4975L18.06 16.7025C18.1635 16.6612 18.279 16.6612 18.3825 16.7025C18.4346 16.7177 18.4825 16.7445 18.5228 16.7809C18.563 16.8172 18.5946 16.8622 18.615 16.9125C18.6372 16.9607 18.6487 17.0132 18.6487 17.0662C18.6487 17.1193 18.6372 17.1718 18.615 17.22C18.5905 17.2711 18.556 17.3167 18.5135 17.354C18.4709 17.3914 18.4213 17.4198 18.3675 17.4375L17.7525 17.6775L18.945 20.6775C18.9671 20.7244 18.9785 20.7756 18.9785 20.8275C18.9785 20.8794 18.9671 20.9306 18.945 20.9775C18.896 21.0801 18.8099 21.1603 18.7042 21.202C18.5985 21.2438 18.4808 21.2439 18.375 21.2025C18.318 21.1929 18.2642 21.1693 18.2184 21.134C18.1727 21.0987 18.1363 21.0527 18.1125 21Z" fill="url(#paint13_linear_47_179)"/>
<path d="M21.75 19.335L21.645 19.9875C21.6247 20.0787 21.5745 20.1605 21.5025 20.22C21.4417 20.2809 21.3627 20.3203 21.2775 20.3325C21.1663 20.3517 21.0519 20.3304 20.955 20.2725C20.907 20.2443 20.8663 20.2052 20.8363 20.1582C20.8063 20.1113 20.7879 20.0579 20.7825 20.0025C20.7779 19.9802 20.7779 19.9573 20.7825 19.935C20.7786 19.9127 20.7786 19.8898 20.7825 19.8675L21.465 16.1925C21.4856 16.0776 21.529 15.9679 21.5925 15.87C21.6293 15.8224 21.6757 15.7831 21.7287 15.7547C21.7816 15.7263 21.84 15.7093 21.9 15.705C21.959 15.6907 22.0204 15.6893 22.0799 15.7009C22.1395 15.7126 22.1958 15.737 22.245 15.7725C22.3368 15.85 22.4132 15.9441 22.47 16.05L24.18 19.365C24.1854 19.3872 24.1854 19.4103 24.18 19.4325C24.18 19.4325 24.18 19.4775 24.18 19.5C24.1913 19.553 24.1898 19.6079 24.1754 19.6601C24.161 19.7123 24.1343 19.7603 24.0975 19.8C24.0184 19.8852 23.9125 19.9407 23.7975 19.9575C23.7101 19.964 23.6224 19.9486 23.5425 19.9125C23.457 19.8727 23.3862 19.8072 23.34 19.725L23.0325 19.14L21.75 19.335ZM22.74 18.4725L22.2675 17.4675C22.2198 17.3769 22.182 17.2813 22.155 17.1825C22.155 17.0775 22.095 16.9725 22.065 16.8825C22.065 16.98 22.065 17.085 22.065 17.19C22.073 17.2948 22.073 17.4001 22.065 17.505L21.8925 18.6L22.74 18.4725Z" fill="url(#paint14_linear_47_179)"/>
<path d="M29.1825 17.16C29.1656 17.4385 29.0545 17.703 28.8675 17.91C28.6816 18.0949 28.4433 18.218 28.185 18.2625L28.8825 19.635C28.9232 19.7053 28.9365 19.788 28.92 19.8675C28.9094 19.9413 28.8752 20.0098 28.8225 20.0625C28.7757 20.1211 28.7133 20.1653 28.6425 20.19C28.5771 20.2211 28.5046 20.234 28.4325 20.2275C28.3601 20.2208 28.2907 20.1951 28.2314 20.1529C28.1722 20.1108 28.1251 20.0537 28.095 19.9875L27.2475 18.225L26.8275 18.18L26.6625 19.59C26.6545 19.6438 26.6358 19.6954 26.6074 19.7418C26.5791 19.7882 26.5417 19.8284 26.4975 19.86C26.4043 19.9277 26.2898 19.9597 26.175 19.95C26.0632 19.9364 25.961 19.8799 25.89 19.7925C25.8543 19.7519 25.8277 19.7041 25.8122 19.6524C25.7966 19.6006 25.7925 19.546 25.8 19.4925L26.25 15.9375C26.2559 15.8792 26.2743 15.8228 26.3041 15.7723C26.3339 15.7218 26.3743 15.6784 26.4225 15.645C26.4702 15.606 26.5255 15.5772 26.5849 15.5604C26.6442 15.5436 26.7064 15.5393 26.7675 15.5475L27.84 15.675C28.1003 15.6907 28.355 15.757 28.59 15.87C28.7589 15.9545 28.9074 16.0748 29.025 16.2225C29.1254 16.3554 29.1946 16.5092 29.2275 16.6725C29.235 16.8363 29.2199 17.0004 29.1825 17.16ZM28.32 17.055C28.3312 16.9905 28.3312 16.9245 28.32 16.86C28.3084 16.7939 28.28 16.7319 28.2375 16.68C28.18 16.6197 28.1112 16.5713 28.035 16.5375C27.9272 16.4934 27.8135 16.4656 27.6975 16.455L27.045 16.38L26.925 17.4L27.615 17.4825C27.7862 17.5131 27.9627 17.4868 28.1175 17.4075C28.1761 17.3683 28.2249 17.3161 28.26 17.255C28.2952 17.1938 28.3157 17.1254 28.32 17.055Z" fill="url(#paint15_linear_47_179)"/>
<path d="M28.74 34.2225C35.3475 39.0375 41.5725 44.49 49.215 52.005C57.1125 59.7075 67.3125 71.325 73.2825 75.75C78.2521 79.4849 83.6381 82.631 89.3325 85.125C88.7166 86.0328 87.8663 86.7569 86.8719 87.2204C85.8776 87.6839 84.7763 87.8695 83.685 87.7575C80.8575 87.5625 71.2275 82.5075 57.24 70.365C44.205 59.115 25.6575 44.625 25.14 40.8975C24.69 37.815 27.0675 35.7 28.74 34.2225Z" fill="url(#paint16_linear_47_179)"/>
<path d="M48.06 48.9225C48.06 48.9225 57.1125 44.88 66.06 44.8125C66.1875 44.88 68.0475 48.5625 68.0475 48.5625C62.4169 48.8465 56.8892 50.182 51.75 52.5C51.75 52.5825 48.06 48.9225 48.06 48.9225Z" fill="url(#paint17_linear_47_179)"/>
<path d="M55.185 55.92C58.0725 54.825 64.185 52.77 70.395 52.515C71.121 53.7303 71.7844 54.9819 72.3825 56.265C67.642 56.6005 62.9844 57.6839 58.5825 59.475C58.005 58.935 56.4675 57.3975 55.185 55.92Z" fill="url(#paint18_linear_47_179)"/>
<path d="M62.115 63.1725C66.2251 61.6595 70.5084 60.6668 74.865 60.2175C75.5025 60.9675 76.5975 63.045 77.235 63.9675C73.2705 64.4023 69.3771 65.3372 65.6475 66.75C64.815 65.805 63.525 64.5825 62.115 63.1725Z" fill="url(#paint19_linear_47_179)"/>
<path d="M83.295 36.7875V39.5475" stroke="url(#paint20_linear_47_179)" stroke-width="1.46" stroke-linecap="round" stroke-linejoin="round"/>
<path d="M81.9525 38.1375H84.75" stroke="url(#paint21_linear_47_179)" stroke-width="1.46" stroke-linecap="round" stroke-linejoin="round"/>
<path d="M78.3525 40.26C78.5057 40.26 78.6526 40.1992 78.7609 40.0909C78.8692 39.9825 78.93 39.8357 78.93 39.6825C78.93 39.5293 78.8692 39.3824 78.7609 39.2741C78.6526 39.1658 78.5057 39.105 78.3525 39.105C78.1993 39.105 78.0524 39.1658 77.9441 39.2741C77.8358 39.3824 77.775 39.5293 77.775 39.6825C77.775 39.8357 77.8358 39.9825 77.9441 40.0909C78.0524 40.1992 78.1993 40.26 78.3525 40.26Z" fill="url(#paint22_linear_47_179)"/>
<path d="M80.25 34.0275C80.4031 34.0275 80.55 33.9667 80.6583 33.8584C80.7666 33.7501 80.8275 33.6032 80.8275 33.45C80.8275 33.2968 80.7666 33.1499 80.6583 33.0416C80.55 32.9333 80.4031 32.8725 80.25 32.8725C80.0968 32.8725 79.9499 32.9333 79.8416 33.0416C79.7333 33.1499 79.6725 33.2968 79.6725 33.45C79.6725 33.6032 79.7333 33.7501 79.8416 33.8584C79.9499 33.9667 80.0968 34.0275 80.25 34.0275Z" fill="url(#paint23_linear_47_179)"/>
<path d="M67.7025 38.5875C69.69 40.965 70.9725 43.98 72.3225 46.8375C75.8923 54.076 79.9439 61.0667 84.45 67.7625" stroke="#2B2D42" stroke-width="1.46" stroke-linecap="round" stroke-linejoin="round"/>
<path d="M55.245 33.45C58.245 33.9675 61.41 34.095 64.1025 35.5725C65.4815 36.3358 66.7031 37.3538 67.7025 38.5725" stroke="#2B2D42" stroke-width="1.46" stroke-linecap="round" stroke-linejoin="round"/>
<path d="M46.5825 17.9175C46.6698 18.4774 46.6261 19.0498 46.455 19.59C45.6225 22.9275 45.3 26.715 47.2875 29.475C49.0875 31.9125 52.2975 32.94 55.245 33.45" stroke="#2B2D42" stroke-width="1.46" stroke-linecap="round" stroke-linejoin="round"/>
<path d="M44.5275 16.575C44.9673 16.5561 45.4021 16.6754 45.7706 16.9162C46.1392 17.157 46.4231 17.5071 46.5825 17.9175" stroke="#2B2D42" stroke-width="1.46" stroke-linecap="round" stroke-linejoin="round"/>
<path d="M60.705 71.1975C58.395 69.2025 56.145 67.215 53.835 65.16C46.26 58.36 38.685 51.61 31.11 44.91C29.6369 43.6694 28.2835 42.2934 27.0675 40.8C26.04 39.45 25.0125 37.9125 25.4625 36.1125C25.6595 35.4291 25.9632 34.7811 26.3625 34.1925C28.35 31.08 38.88 19.0125 42 17.34C42.7664 16.901 43.6235 16.6444 44.505 16.59" stroke="#2B2D42" stroke-width="1.46" stroke-linecap="round" stroke-linejoin="round"/>
<path d="M31.56 34.095C38.723 39.8525 45.5799 45.9809 52.1025 52.455C55.8525 56.3025 59.6025 60.2175 63.3525 64.0725C66.8775 67.665 70.2825 71.385 74.325 74.4075C78.7575 77.6775 85.755 82.56 93.195 84.42" stroke="#2B2D42" stroke-width="1.46" stroke-linecap="round" stroke-linejoin="round"/>
<path d="M72.3825 72.8625C72.3825 72.8625 77.265 66.96 84.3825 67.7325C84.3825 67.7325 88.62 70.17 90.285 74.28C92.2125 78.96 89.775 84.87 84.8325 86.025L85.0275 85.9575C83.831 86.1606 82.6013 85.9348 81.555 85.32C80.4675 84.8025 79.305 84.2925 78.2175 83.715C76.0927 82.5878 74.0365 81.3356 72.06 79.965C70.7775 79.1325 69.4875 78.2325 68.31 77.3325" stroke="#2B2D42" stroke-width="1.46" stroke-linecap="round" stroke-linejoin="round"/>
<path d="M78.0975 65.4825C73.164 58.1608 68.7459 50.5049 64.875 42.57C64.365 41.5425 63.8475 40.515 63.375 39.42" stroke="#2B2D42" stroke-width="1.46" stroke-linecap="round" stroke-linejoin="round"/>
<path d="M62.115 32.1675C63.159 31.5676 64.2561 31.0655 65.3925 30.6675C65.79 30.5297 66.2255 30.5512 66.6075 30.7275C67.635 31.245 68.1075 32.5275 68.4675 33.555C68.9175 34.71 69.3075 35.805 69.6225 36.8925" stroke="#2B2D42" stroke-width="1.46" stroke-linecap="round" stroke-linejoin="round"/>
<path d="M36.825 87.435H70.65" stroke="#2B2D42" stroke-width="1.46" stroke-linecap="round" stroke-linejoin="round"/>
<path d="M16.2825 87.435H29.8275" stroke="#2B2D42" stroke-width="1.46" stroke-linecap="round" stroke-linejoin="round"/>
<path d="M80.6025 67.9875C88.6875 72.8625 87.3525 79.86 84.195 82.815" stroke="#2B2D42" stroke-width="1.46" stroke-linecap="round" stroke-linejoin="round"/>
<path d="M74.505 67.5375C80.505 70.5375 82.98 75.7875 79.4475 80.115" stroke="#2B2D42" stroke-width="1.46" stroke-linecap="round" stroke-linejoin="round"/>
<path d="M29.7675 23.25C31.6275 22.2825 35.6025 21.96 38.235 24.5325C39.525 25.7475 39.9075 27.225 40.485 28.77C41.64 31.9125 45.6825 32.235 48.315 30.63" stroke="#2B2D42" stroke-width="1.46" stroke-linecap="round" stroke-linejoin="round"/>
<path d="M46.905 47.3175C49.6829 46.1455 52.5591 45.2219 55.5 44.5575C57.4269 44.0994 59.3773 43.7463 61.3425 43.5" stroke="#2B2D42" stroke-width="1.46" stroke-linecap="round" stroke-linejoin="round"/>
<path d="M50.565 50.7825C55.8601 48.6745 61.4429 47.3774 67.125 46.935" stroke="#2B2D42" stroke-width="1.46" stroke-linecap="round" stroke-linejoin="round"/>
<path d="M54.09 54.4425C58.9366 52.5752 64.0119 51.367 69.18 50.85" stroke="#2B2D42" stroke-width="1.46" stroke-linecap="round" stroke-linejoin="round"/>
<path d="M57.555 58.035C61.9935 56.3922 66.6023 55.2526 71.295 54.6375" stroke="#2B2D42" stroke-width="1.46" stroke-linecap="round" stroke-linejoin="round"/>
<path d="M61.0275 61.635C65.1531 60.2182 69.4089 59.2133 73.7325 58.635" stroke="#2B2D42" stroke-width="1.46" stroke-linecap="round" stroke-linejoin="round"/>
<path d="M67.44 64.26C70.2623 63.4321 73.136 62.7908 76.0425 62.34" stroke="#2B2D42" stroke-width="1.46" stroke-linecap="round" stroke-linejoin="round"/>
<defs>
<linearGradient id="paint0_linear_47_179" x1="31.6506" y1="54.0367" x2="31.6506" y2="58.7796" gradientUnits="userSpaceOnUse">
<stop stop-color="#2AF598"/>
<stop offset="1" stop-color="#009EFD"/>
</linearGradient>
<linearGradient id="paint1_linear_47_179" x1="27.1342" y1="55.5254" x2="27.1342" y2="59.9771" gradientUnits="userSpaceOnUse">
<stop stop-color="#2AF598"/>
<stop offset="1" stop-color="#009EFD"/>
</linearGradient>
<linearGradient id="paint2_linear_47_179" x1="23.0129" y1="55.5413" x2="23.0129" y2="60.0114" gradientUnits="userSpaceOnUse">
<stop stop-color="#2AF598"/>
<stop offset="1" stop-color="#009EFD"/>
</linearGradient>
<linearGradient id="paint3_linear_47_179" x1="19.0374" y1="54.772" x2="19.0374" y2="59.3137" gradientUnits="userSpaceOnUse">
<stop stop-color="#2AF598"/>
<stop offset="1" stop-color="#009EFD"/>
</linearGradient>
<linearGradient id="paint4_linear_47_179" x1="14.8636" y1="52.0247" x2="14.8636" y2="56.6695" gradientUnits="userSpaceOnUse">
<stop stop-color="#2AF598"/>
<stop offset="1" stop-color="#009EFD"/>
</linearGradient>
<linearGradient id="paint5_linear_47_179" x1="10.4209" y1="49.3874" x2="10.4209" y2="53.4647" gradientUnits="userSpaceOnUse">
<stop stop-color="#2AF598"/>
<stop offset="1" stop-color="#009EFD"/>
</linearGradient>
<linearGradient id="paint6_linear_47_179" x1="7.95852" y1="46.4658" x2="7.95852" y2="48.6383" gradientUnits="userSpaceOnUse">
<stop stop-color="#2AF598"/>
<stop offset="1" stop-color="#009EFD"/>
</linearGradient>
<linearGradient id="paint7_linear_47_179" x1="5.99967" y1="41.9976" x2="5.99967" y2="45.4422" gradientUnits="userSpaceOnUse">
<stop stop-color="#2AF598"/>
<stop offset="1" stop-color="#009EFD"/>
</linearGradient>
<linearGradient id="paint8_linear_47_179" x1="5.08667" y1="37.1453" x2="5.08667" y2="40.3727" gradientUnits="userSpaceOnUse">
<stop stop-color="#2AF598"/>
<stop offset="1" stop-color="#009EFD"/>
</linearGradient>
<linearGradient id="paint9_linear_47_179" x1="5.36965" y1="31.8076" x2="5.36965" y2="35.3257" gradientUnits="userSpaceOnUse">
<stop stop-color="#2AF598"/>
<stop offset="1" stop-color="#009EFD"/>
</linearGradient>
<linearGradient id="paint10_linear_47_179" x1="7.1919" y1="26.9586" x2="7.1919" y2="30.9039" gradientUnits="userSpaceOnUse">
<stop stop-color="#2AF598"/>
<stop offset="1" stop-color="#009EFD"/>
</linearGradient>
<linearGradient id="paint11_linear_47_179" x1="9.93236" y1="22.7004" x2="9.93236" y2="27.2341" gradientUnits="userSpaceOnUse">
<stop stop-color="#2AF598"/>
<stop offset="1" stop-color="#009EFD"/>
</linearGradient>
<linearGradient id="paint12_linear_47_179" x1="13.6189" y1="19.0875" x2="13.6189" y2="23.664" gradientUnits="userSpaceOnUse">
<stop stop-color="#2AF598"/>
<stop offset="1" stop-color="#009EFD"/>
</linearGradient>
<linearGradient id="paint13_linear_47_179" x1="17.3604" y1="16.6715" x2="17.3604" y2="21.2334" gradientUnits="userSpaceOnUse">
<stop stop-color="#2AF598"/>
<stop offset="1" stop-color="#009EFD"/>
</linearGradient>
<linearGradient id="paint14_linear_47_179" x1="22.4832" y1="15.6931" x2="22.4832" y2="20.3394" gradientUnits="userSpaceOnUse">
<stop stop-color="#2AF598"/>
<stop offset="1" stop-color="#009EFD"/>
</linearGradient>
<linearGradient id="paint15_linear_47_179" x1="27.5129" y1="15.5435" x2="27.5129" y2="20.2291" gradientUnits="userSpaceOnUse">
<stop stop-color="#2AF598"/>
<stop offset="1" stop-color="#009EFD"/>
</linearGradient>
<linearGradient id="paint16_linear_47_179" x1="57.2084" y1="34.2225" x2="57.2084" y2="87.7893" gradientUnits="userSpaceOnUse">
<stop stop-color="#2AF598"/>
<stop offset="1" stop-color="#009EFD"/>
</linearGradient>
<linearGradient id="paint17_linear_47_179" x1="58.0537" y1="44.8125" x2="58.0537" y2="52.5014" gradientUnits="userSpaceOnUse">
<stop stop-color="#2AF598"/>
<stop offset="1" stop-color="#009EFD"/>
</linearGradient>
<linearGradient id="paint18_linear_47_179" x1="63.7837" y1="52.515" x2="63.7837" y2="59.475" gradientUnits="userSpaceOnUse">
<stop stop-color="#2AF598"/>
<stop offset="1" stop-color="#009EFD"/>
</linearGradient>
<linearGradient id="paint19_linear_47_179" x1="69.675" y1="60.2175" x2="69.675" y2="66.75" gradientUnits="userSpaceOnUse">
<stop stop-color="#2AF598"/>
<stop offset="1" stop-color="#009EFD"/>
</linearGradient>
<linearGradient id="paint20_linear_47_179" x1="83.795" y1="36.7875" x2="83.795" y2="39.5475" gradientUnits="userSpaceOnUse">
<stop stop-color="#2AF598"/>
<stop offset="1" stop-color="#009EFD"/>
</linearGradient>
<linearGradient id="paint21_linear_47_179" x1="83.3513" y1="38.1375" x2="83.3513" y2="39.1375" gradientUnits="userSpaceOnUse">
<stop stop-color="#2AF598"/>
<stop offset="1" stop-color="#009EFD"/>
</linearGradient>
<linearGradient id="paint22_linear_47_179" x1="78.3525" y1="39.105" x2="78.3525" y2="40.26" gradientUnits="userSpaceOnUse">
<stop stop-color="#2AF598"/>
<stop offset="1" stop-color="#009EFD"/>
</linearGradient>
<linearGradient id="paint23_linear_47_179" x1="80.25" y1="32.8725" x2="80.25" y2="34.0275" gradientUnits="userSpaceOnUse">
<stop stop-color="#2AF598"/>
<stop offset="1" stop-color="#009EFD"/>
</linearGradient>
</defs>
</svg>
