<svg width="96" height="96" viewBox="0 0 96 96" fill="none" xmlns="http://www.w3.org/2000/svg">
<g clip-path="url(#clip0_47_226)">
<path d="M25.1475 57.9825L24.4425 60.4275C24.4098 60.5166 24.3493 60.5929 24.27 60.645C24.1909 60.7033 24.0977 60.7395 24 60.75C23.8831 60.7568 23.768 60.7194 23.6775 60.645C23.6329 60.6105 23.5968 60.5661 23.5721 60.5154C23.5474 60.4647 23.5347 60.4089 23.535 60.3525C23.532 60.3301 23.532 60.3074 23.535 60.285C23.535 60.285 23.535 60.2325 23.535 60.2175L24.75 56.595C24.7858 56.4795 24.8444 56.3723 24.9225 56.28C24.9655 56.2368 25.0171 56.2031 25.074 56.1812C25.1308 56.1592 25.1916 56.1494 25.2525 56.1525C25.3134 56.1478 25.3747 56.1553 25.4326 56.1746C25.4906 56.1939 25.5441 56.2247 25.59 56.265C25.6754 56.3516 25.7396 56.4569 25.7775 56.5725L27.09 60.1125C27.0942 60.1373 27.0942 60.1627 27.09 60.1875C27.0936 60.2098 27.0936 60.2326 27.09 60.255C27.0927 60.3103 27.0825 60.3654 27.0604 60.4161C27.0383 60.4669 27.0048 60.5118 26.9625 60.5475C26.8736 60.621 26.7628 60.6632 26.6475 60.6675C26.562 60.6658 26.4788 60.6398 26.4075 60.5925C26.3251 60.5453 26.2616 60.4711 26.2275 60.3825L25.3725 57.975C25.3422 57.8764 25.3172 57.7763 25.2975 57.675C25.2975 57.5625 25.2975 57.4575 25.245 57.36C25.245 57.4575 25.245 57.5625 25.245 57.675C25.2253 57.7811 25.1925 57.8844 25.1475 57.9825Z" fill="url(#paint0_linear_47_226)"/>
<path d="M21.3825 56.805L21.75 56.25C21.7983 56.1673 21.876 56.1057 21.9675 56.0775C22.0481 56.0526 22.1344 56.0526 22.215 56.0775C22.3295 56.1041 22.4322 56.1673 22.5075 56.2575C22.5404 56.3008 22.5634 56.3507 22.5751 56.4038C22.5867 56.4569 22.5867 56.5119 22.575 56.565C22.575 56.565 22.575 56.61 22.575 56.6325V56.7L20.6175 59.94C20.5583 60.0421 20.4792 60.1314 20.385 60.2025C20.3322 60.2331 20.2738 60.2529 20.2133 60.2606C20.1528 60.2684 20.0913 60.2639 20.0325 60.2475C19.9515 60.2484 19.872 60.2254 19.804 60.1814C19.736 60.1373 19.6824 60.0743 19.65 60C19.5924 59.8952 19.5543 59.7809 19.5375 59.6625L19.095 55.9125V55.845C19.0934 55.8225 19.0934 55.8 19.095 55.7775C19.1042 55.7224 19.1259 55.6701 19.1584 55.6246C19.1909 55.5791 19.2333 55.5416 19.2825 55.515C19.391 55.4727 19.5115 55.4727 19.62 55.515C19.7096 55.5348 19.7909 55.582 19.8525 55.65C19.9196 55.7133 19.9621 55.7983 19.9725 55.89L20.055 56.5575L21.3825 56.805ZM20.145 57.27L20.25 58.3875C20.2577 58.4924 20.2577 58.5976 20.25 58.7025C20.25 58.8175 20.25 58.9225 20.25 59.0175L20.355 58.725C20.3894 58.6253 20.4346 58.5298 20.49 58.44L21 57.4575L20.145 57.27Z" fill="url(#paint1_linear_47_226)"/>
<path d="M15.3825 53.5875C15.4549 53.6301 15.5186 53.6861 15.57 53.7525C15.6138 53.8205 15.642 53.8973 15.6525 53.9775L15.75 56.91L16.8375 54.825C16.8625 54.7768 16.8976 54.7344 16.9402 54.7008C16.9829 54.6672 17.0323 54.643 17.085 54.63C17.1964 54.6002 17.3148 54.6129 17.4174 54.6656C17.5199 54.7183 17.5993 54.8071 17.64 54.915C17.6624 54.9645 17.6739 55.0182 17.6739 55.0725C17.6739 55.1268 17.6624 55.1805 17.64 55.23L15.9225 58.5C15.8964 58.5504 15.8603 58.595 15.8165 58.6311C15.7727 58.6672 15.722 58.694 15.6675 58.71C15.5485 58.7391 15.4229 58.7231 15.315 58.665C15.2432 58.6212 15.1819 58.5623 15.1353 58.4923C15.0886 58.4224 15.0578 58.3431 15.045 58.26C15.045 57.9825 15.045 57.72 15.045 57.51V56.82C15.045 56.595 15.045 56.37 15.045 56.13C15.045 55.89 15.045 55.6275 15.045 55.335L13.8375 57.45C13.8117 57.499 13.7755 57.5419 13.7315 57.5755C13.6874 57.6092 13.6366 57.6329 13.5825 57.645C13.4763 57.686 13.3587 57.686 13.2525 57.645C13.2009 57.6193 13.1551 57.5835 13.1177 57.5397C13.0803 57.4959 13.0522 57.445 13.035 57.39C13.0128 57.3418 13.0013 57.2893 13.0013 57.2362C13.0013 57.1832 13.0128 57.1307 13.035 57.0825L14.745 53.79C14.7997 53.6897 14.8911 53.6145 15 53.58C15.1236 53.5328 15.2608 53.5354 15.3825 53.5875Z" fill="url(#paint2_linear_47_226)"/>
<path d="M11.31 52.11C11.2292 52.1813 11.1784 52.2804 11.1675 52.3875C11.1656 52.4601 11.1811 52.5321 11.2125 52.5975C11.243 52.6697 11.278 52.7398 11.3175 52.8075L11.4375 53.0325C11.52 53.1675 11.6025 53.31 11.6775 53.4525C11.7519 53.5932 11.8026 53.7453 11.8275 53.9025C11.8647 54.0553 11.8647 54.2147 11.8275 54.3675C11.7705 54.5533 11.6702 54.7229 11.535 54.8625C11.4214 55.0012 11.2783 55.1129 11.1162 55.1895C10.954 55.266 10.7768 55.3055 10.5975 55.305C10.2113 55.2896 9.84585 55.1257 9.5775 54.8475C9.51 54.7875 9.4275 54.6975 9.33 54.5925C9.23262 54.4872 9.14711 54.3715 9.075 54.2475C9.00833 54.136 8.9602 54.0144 8.9325 53.8875C8.92015 53.8328 8.92193 53.7759 8.93768 53.7221C8.95343 53.6683 8.98262 53.6194 9.0225 53.58C9.05666 53.5417 9.09816 53.5107 9.14455 53.4888C9.19093 53.4669 9.24125 53.4546 9.2925 53.4525C9.35207 53.4509 9.41134 53.4614 9.46676 53.4833C9.52218 53.5053 9.5726 53.5381 9.615 53.58C9.65407 53.6142 9.68705 53.6548 9.7125 53.7L9.795 53.8425L9.9 54.0225C9.95365 54.0999 10.0166 54.1705 10.0875 54.2325C10.1431 54.281 10.2034 54.3237 10.2675 54.36C10.3245 54.4023 10.3919 54.4282 10.4625 54.435C10.5267 54.4498 10.5933 54.4498 10.6575 54.435C10.7322 54.406 10.799 54.3597 10.8525 54.3C10.891 54.2644 10.9221 54.2216 10.944 54.174C10.9658 54.1264 10.9781 54.0749 10.98 54.0225C10.9763 53.9506 10.9611 53.8797 10.935 53.8125C10.9074 53.7319 10.8723 53.654 10.83 53.58L10.7175 53.3775C10.635 53.235 10.5525 53.0925 10.4775 52.95C10.4031 52.8119 10.3524 52.6624 10.3275 52.5075C10.2902 52.3522 10.2902 52.1903 10.3275 52.035C10.3804 51.8513 10.4784 51.6837 10.6125 51.5475C10.7457 51.3973 10.9093 51.2772 11.0925 51.195C11.2603 51.1224 11.4424 51.089 11.625 51.0975C11.8145 51.1004 12.0012 51.1439 12.1725 51.225C12.3629 51.3178 12.5395 51.4364 12.6975 51.5775C12.7953 51.6725 12.8879 51.7726 12.975 51.8775C13.0741 51.9939 13.162 52.1195 13.2375 52.2525C13.301 52.37 13.3465 52.4965 13.3725 52.6275C13.3827 52.6817 13.3806 52.7374 13.3663 52.7906C13.352 52.8439 13.3259 52.8932 13.29 52.935C13.2543 52.9728 13.2113 53.003 13.1636 53.0236C13.1159 53.0442 13.0645 53.0549 13.0125 53.055C12.958 53.0582 12.9035 53.0506 12.852 53.0326C12.8005 53.0145 12.7531 52.9865 12.7125 52.95L12.6225 52.83L12.5325 52.68L12.39 52.44C12.3235 52.3411 12.2455 52.2504 12.1575 52.17C12.0384 52.0406 11.8752 51.9603 11.7 51.945C11.6266 51.9397 11.5529 51.9518 11.4851 51.9805C11.4173 52.0092 11.3573 52.0536 11.31 52.11Z" fill="url(#paint3_linear_47_226)"/>
<path d="M7.5975 48.495C7.63979 48.4631 7.68872 48.4412 7.74066 48.4308C7.79259 48.4204 7.8462 48.4218 7.8975 48.435C7.9498 48.4467 7.99927 48.4686 8.04304 48.4995C8.08681 48.5304 8.12402 48.5696 8.1525 48.615L9.045 49.8975C9.1102 49.9888 9.13957 50.1009 9.1275 50.2125C9.12054 50.2634 9.10299 50.3122 9.07599 50.3559C9.04899 50.3996 9.01314 50.4371 8.97074 50.4661C8.92834 50.4951 8.88034 50.5149 8.82983 50.5241C8.77933 50.5334 8.72743 50.532 8.6775 50.52C8.56978 50.4968 8.4755 50.4321 8.415 50.34L7.5 49.05C7.46787 49.0062 7.44471 48.9565 7.43184 48.9037C7.41897 48.851 7.41664 48.7962 7.425 48.7425C7.43313 48.6909 7.45288 48.6418 7.48277 48.5989C7.51265 48.556 7.55188 48.5205 7.5975 48.495Z" fill="url(#paint4_linear_47_226)"/>
<path d="M7.8375 44.4825C7.92444 44.7099 7.9677 44.9516 7.965 45.195C7.95988 45.4018 7.90955 45.605 7.81756 45.7902C7.72557 45.9755 7.59414 46.1384 7.4325 46.2675C7.26445 46.4077 7.0744 46.5192 6.87 46.5975L5.7 47.0325C5.50135 47.1126 5.29124 47.1607 5.0775 47.175C4.88138 47.1876 4.68476 47.1595 4.5 47.0925C4.30557 47.0186 4.13098 46.9005 3.99 46.7475C3.8145 46.5578 3.68153 46.3328 3.6 46.0875C3.49897 45.8507 3.45036 45.5948 3.4575 45.3375C3.46273 45.1289 3.51395 44.924 3.6075 44.7375C3.70612 44.5629 3.83874 44.4099 3.9975 44.2875C4.16763 44.156 4.35747 44.0522 4.56 43.98L5.7225 43.5375C5.92849 43.4569 6.14649 43.4113 6.3675 43.4025C6.57258 43.3961 6.77679 43.4318 6.9675 43.5075C7.16242 43.5841 7.33697 43.7047 7.4775 43.86C7.63686 44.0421 7.75914 44.2536 7.8375 44.4825ZM4.3275 45.81C4.35531 45.9157 4.40893 46.0128 4.48355 46.0927C4.55816 46.1725 4.65144 46.2326 4.755 46.2675C4.96759 46.3193 5.19126 46.3009 5.3925 46.215L6.555 45.75C6.76388 45.6808 6.94347 45.5434 7.065 45.36C7.11378 45.2635 7.13919 45.1569 7.13919 45.0487C7.13919 44.9406 7.11378 44.834 7.065 44.7375C7.03495 44.6338 6.98043 44.5387 6.90605 44.4604C6.83166 44.3821 6.73957 44.3228 6.6375 44.2875C6.42496 44.2351 6.20112 44.2535 6 44.34L4.83 44.775C4.62325 44.8443 4.44438 44.9784 4.32 45.1575C4.266 45.258 4.23836 45.3706 4.23967 45.4847C4.24098 45.5988 4.2712 45.7107 4.3275 45.81Z" fill="url(#paint5_linear_47_226)"/>
<path d="M6.16501 38.7075C6.2174 38.699 6.27105 38.7027 6.32178 38.7183C6.37251 38.7339 6.41896 38.761 6.45751 38.7975C6.50211 38.8309 6.53871 38.8738 6.56466 38.9231C6.59061 38.9724 6.60524 39.0268 6.60751 39.0825L6.81001 40.845C6.82621 40.9673 6.79391 41.0912 6.72001 41.19C6.68664 41.2382 6.64321 41.2786 6.59271 41.3084C6.54221 41.3382 6.48584 41.3566 6.42751 41.3625L2.79751 41.775C2.74472 41.779 2.69165 41.7725 2.64142 41.7558C2.59119 41.739 2.54481 41.7124 2.50501 41.6775C2.46002 41.6406 2.4229 41.595 2.39585 41.5435C2.36879 41.4919 2.35236 41.4355 2.34751 41.3775C2.33491 41.2624 2.36714 41.1469 2.43751 41.055C2.46838 41.0124 2.50755 40.9765 2.55266 40.9494C2.59777 40.9223 2.64789 40.9047 2.70001 40.8975L6.00001 40.5L5.84251 39.1425C5.83162 39.0334 5.86096 38.924 5.92501 38.835C5.95367 38.7979 5.98989 38.7674 6.03127 38.7454C6.07265 38.7234 6.11824 38.7105 6.16501 38.7075Z" fill="url(#paint6_linear_47_226)"/>
<path d="M5.28751 33.87C5.50297 33.8979 5.7129 33.9586 5.91001 34.05C6.10517 34.1398 6.27709 34.2732 6.41251 34.44C6.5556 34.6285 6.65546 34.8461 6.70501 35.0775C6.78016 35.3791 6.79545 35.6925 6.75001 36L6.65251 36.705C6.64656 36.7683 6.62749 36.8297 6.5965 36.8852C6.5655 36.9407 6.52328 36.9892 6.47251 37.0275C6.42813 37.0674 6.37574 37.0975 6.31883 37.1156C6.26193 37.1337 6.20181 37.1395 6.14251 37.1325L2.62501 36.66C2.56452 36.652 2.50645 36.6311 2.4547 36.5987C2.40296 36.5664 2.35873 36.5233 2.32501 36.4725C2.25542 36.3663 2.22862 36.2377 2.25001 36.1125L2.34751 35.4075C2.37859 35.1053 2.46236 34.8108 2.59501 34.5375C2.6902 34.3308 2.82825 34.1467 3.00001 33.9975C3.17255 33.8696 3.3731 33.7848 3.58501 33.75C3.79364 33.7161 4.00637 33.7161 4.21501 33.75L5.28751 33.87ZM5.17501 34.74L4.10251 34.605C3.99079 34.5862 3.87673 34.5862 3.76501 34.605C3.65983 34.6271 3.56028 34.6705 3.47251 34.7325C3.3817 34.8 3.30734 34.8872 3.25501 34.9875C3.18996 35.1191 3.14931 35.2614 3.13501 35.4075L3.08251 35.835L5.89501 36.2025L5.95501 35.775C5.98209 35.6287 5.98209 35.4787 5.95501 35.3325C5.92715 35.2191 5.87322 35.1138 5.79751 35.025C5.72464 34.9442 5.63507 34.8802 5.53501 34.8375C5.42202 34.7831 5.29998 34.7501 5.17501 34.74Z" fill="url(#paint7_linear_47_226)"/>
<path d="M6.54 29.655C6.58843 29.6722 6.63242 29.6999 6.66875 29.7362C6.70508 29.7726 6.73284 29.8166 6.75 29.865C6.79086 29.966 6.79086 30.079 6.75 30.18L6.1725 31.6425C6.15517 31.6944 6.12768 31.7424 6.09163 31.7836C6.05557 31.8248 6.01168 31.8584 5.9625 31.8825C5.91519 31.9031 5.86412 31.9138 5.8125 31.9138C5.76088 31.9138 5.70981 31.9031 5.6625 31.8825C5.61491 31.8654 5.57189 31.8375 5.53678 31.8011C5.50167 31.7647 5.4754 31.7207 5.46 31.6725C5.43791 31.6216 5.42651 31.5667 5.42651 31.5112C5.42651 31.4558 5.43791 31.4009 5.46 31.35L6.0375 29.895C6.05411 29.8436 6.08141 29.7963 6.1176 29.7563C6.1538 29.7162 6.19807 29.6842 6.2475 29.6625C6.29257 29.6394 6.34226 29.6267 6.39289 29.6254C6.44353 29.6241 6.49381 29.6342 6.54 29.655Z" fill="url(#paint8_linear_47_226)"/>
<path d="M8.9025 26.8425C8.81754 26.7749 8.71099 26.7402 8.6025 26.745C8.53195 26.7608 8.46385 26.7861 8.4 26.82L8.2125 26.955L8.01 27.105L7.62 27.405C7.49599 27.5006 7.35646 27.5742 7.2075 27.6225C7.05591 27.6753 6.89382 27.6907 6.735 27.6675C6.54635 27.6337 6.36725 27.5595 6.21 27.45C6.05601 27.3578 5.92436 27.2326 5.82451 27.0835C5.72466 26.9344 5.65908 26.765 5.6325 26.5875C5.59479 26.2004 5.70165 25.813 5.9325 25.5C5.985 25.425 6.06 25.335 6.15 25.2225C6.24033 25.1133 6.34077 25.0128 6.45 24.9225C6.55186 24.8462 6.666 24.7879 6.7875 24.75C6.84063 24.7317 6.8972 24.7255 6.95302 24.732C7.00884 24.7385 7.06249 24.7575 7.11 24.7875C7.15376 24.8161 7.19105 24.8536 7.21947 24.8975C7.24789 24.9415 7.2668 24.9908 7.275 25.0425C7.29295 25.1615 7.26331 25.2827 7.1925 25.38C7.16348 25.4227 7.12807 25.4606 7.0875 25.4925L6.9675 25.5975C6.90857 25.6346 6.85332 25.6773 6.8025 25.725C6.73169 25.7878 6.67098 25.8612 6.6225 25.9425C6.57744 26.0016 6.54201 26.0674 6.5175 26.1375C6.48836 26.2011 6.47303 26.2701 6.4725 26.34C6.47574 26.408 6.49365 26.4745 6.525 26.535C6.56298 26.6022 6.61711 26.6589 6.6825 26.7C6.76818 26.7656 6.87487 26.7976 6.9825 26.79C7.05377 26.7767 7.12225 26.7513 7.185 26.715C7.26008 26.6755 7.33052 26.6277 7.395 26.5725L7.575 26.4375L7.965 26.1375C8.09343 26.0446 8.23498 25.9713 8.385 25.92C8.534 25.8672 8.69365 25.8518 8.85 25.875C9.03915 25.9025 9.21909 25.9744 9.375 26.085C9.54542 26.194 9.689 26.3402 9.795 26.5125C9.89121 26.6675 9.95262 26.8415 9.975 27.0225C9.99328 27.2116 9.97547 27.4025 9.9225 27.585C9.85741 27.7858 9.76666 27.9774 9.6525 28.155C9.585 28.2525 9.495 28.3575 9.3975 28.4775C9.29499 28.5877 9.18471 28.6905 9.0675 28.785C8.96085 28.8661 8.84182 28.9294 8.715 28.9725C8.66609 28.9969 8.61217 29.0096 8.5575 29.0096C8.50283 29.0096 8.44891 28.9969 8.4 28.9725C8.35599 28.9425 8.31846 28.904 8.28963 28.8592C8.2608 28.8145 8.24126 28.7644 8.23216 28.7119C8.22307 28.6594 8.22461 28.6057 8.23669 28.5538C8.24877 28.5019 8.27115 28.453 8.3025 28.41C8.3306 28.3689 8.36331 28.3312 8.4 28.2975L8.535 28.1925L8.7525 28.0125C8.84492 27.9365 8.92357 27.8452 8.985 27.7425C9.09881 27.6066 9.15529 27.4318 9.1425 27.255C9.14194 27.1713 9.1195 27.0892 9.0774 27.0168C9.0353 26.9444 8.975 26.8844 8.9025 26.8425Z" fill="url(#paint9_linear_47_226)"/>
<path d="M11.04 20.8725V22.7625L13.29 23.1825C13.3338 23.1841 13.3759 23.1999 13.41 23.2275L13.485 23.295C13.5209 23.3314 13.549 23.3748 13.5675 23.4225C13.5789 23.4744 13.5789 23.5281 13.5675 23.58C13.5777 23.6345 13.5777 23.6905 13.5675 23.745C13.5449 23.8026 13.5089 23.854 13.4625 23.895C13.4123 23.9452 13.3502 23.9818 13.282 24.0015C13.2138 24.0212 13.1417 24.0232 13.0725 24.0075L11.07 23.6175V23.79L11.9475 24.75C11.9842 24.7902 12.0118 24.8377 12.0286 24.8895C12.0454 24.9412 12.051 24.9959 12.045 25.05C12.0339 25.1641 11.9811 25.2701 11.8967 25.3476C11.8122 25.4251 11.7021 25.4687 11.5875 25.47C11.5324 25.4711 11.4778 25.4602 11.4273 25.4382C11.3768 25.4162 11.3317 25.3836 11.295 25.3425L8.78251 22.5825C8.74604 22.5437 8.71843 22.4975 8.7016 22.447C8.68476 22.3965 8.6791 22.3429 8.68501 22.29C8.68849 22.2325 8.70358 22.1762 8.72936 22.1247C8.75513 22.0731 8.79107 22.0273 8.83501 21.99C8.92049 21.9107 9.03342 21.8677 9.15001 21.87C9.20338 21.8681 9.25652 21.8778 9.30574 21.8986C9.35496 21.9193 9.39907 21.9505 9.43501 21.99L10.2375 22.875V20.9925C10.2236 20.9257 10.2236 20.8568 10.2375 20.79C10.2585 20.7233 10.2974 20.6636 10.35 20.6175C10.3891 20.5814 10.435 20.5534 10.485 20.535C10.5397 20.5272 10.5953 20.5272 10.65 20.535C10.702 20.5243 10.7556 20.5243 10.8075 20.535C10.8596 20.5488 10.9065 20.5775 10.9425 20.6175C10.9723 20.6488 10.9976 20.6841 11.0175 20.7225C11.0339 20.7708 11.0415 20.8216 11.04 20.8725Z" fill="url(#paint10_linear_47_226)"/>
<path d="M16.275 22.11C16.0615 22.2285 15.8273 22.3049 15.585 22.335C15.377 22.3531 15.1675 22.3275 14.97 22.26C14.7767 22.1903 14.6003 22.0803 14.4525 21.9375C14.2901 21.7902 14.1554 21.6149 14.055 21.42L13.5 20.3175C13.4001 20.1285 13.3269 19.9266 13.2825 19.7175C13.2421 19.5195 13.2421 19.3155 13.2825 19.1175C13.3317 18.9138 13.4266 18.724 13.56 18.5625C13.7291 18.3682 13.9358 18.21 14.1675 18.0975C14.3974 17.9647 14.6532 17.8828 14.9175 17.8575C15.1228 17.8379 15.3299 17.8648 15.5233 17.9362C15.7168 18.0076 15.8917 18.1217 16.035 18.27C16.184 18.4209 16.3104 18.5927 16.41 18.78L16.995 19.8825C17.0993 20.0768 17.1703 20.2872 17.205 20.505C17.2501 20.705 17.2501 20.9125 17.205 21.1125C17.1511 21.3136 17.0539 21.5005 16.92 21.66C16.7397 21.8544 16.5197 22.0079 16.275 22.11ZM14.52 18.8025C14.4173 18.8427 14.3259 18.9075 14.254 18.9912C14.1821 19.0748 14.1318 19.1749 14.1075 19.2825C14.0897 19.4997 14.1395 19.7171 14.25 19.905L14.835 21C14.9276 21.2 15.0866 21.3616 15.285 21.4575C15.385 21.4966 15.4928 21.5115 15.5997 21.5011C15.7065 21.4907 15.8094 21.4552 15.9 21.3975C16 21.3566 16.0881 21.2912 16.1563 21.2073C16.2244 21.1234 16.2704 21.0238 16.29 20.9175C16.3218 20.6991 16.2767 20.4764 16.1625 20.2875L15.5775 19.1925C15.4881 18.9935 15.3351 18.8299 15.1425 18.7275C15.0407 18.6874 14.9304 18.6733 14.8218 18.6864C14.7131 18.6994 14.6094 18.7394 14.52 18.8025Z" fill="url(#paint11_linear_47_226)"/>
<path d="M20.745 20.4525C20.4977 20.5045 20.2423 20.5045 19.995 20.4525C19.7905 20.4196 19.5958 20.3421 19.4247 20.2254C19.2536 20.1087 19.1103 19.9558 19.005 19.7775C18.8894 19.5901 18.8058 19.3848 18.7575 19.17L18.51 18C18.4654 17.7906 18.4503 17.5761 18.465 17.3625C18.4782 17.1614 18.5317 16.965 18.6225 16.785C18.7248 16.6018 18.8687 16.4451 19.0425 16.3275C19.254 16.1795 19.4942 16.0773 19.7475 16.0275C19.995 15.9772 20.25 15.9772 20.4975 16.0275C20.7049 16.0613 20.9021 16.1407 21.075 16.26C21.2338 16.3824 21.3664 16.5354 21.465 16.71C21.5709 16.8978 21.6492 17.0999 21.6975 17.31L21.9675 18.525C22.0193 18.7384 22.0345 18.959 22.0125 19.1775C21.99 19.3808 21.9262 19.5773 21.825 19.755C21.7225 19.9381 21.5787 20.0947 21.405 20.2125C21.2027 20.3347 20.9785 20.4162 20.745 20.4525ZM19.92 16.7925C19.8108 16.8052 19.7064 16.8448 19.6161 16.9076C19.5258 16.9704 19.4524 17.0545 19.4025 17.1525C19.3328 17.3593 19.3328 17.5832 19.4025 17.79L19.6725 19.005C19.7144 19.2214 19.8249 19.4187 19.9875 19.5675C20.0773 19.6252 20.1777 19.6644 20.2829 19.6828C20.388 19.7012 20.4958 19.6985 20.5998 19.6747C20.7039 19.651 20.8022 19.6067 20.8889 19.5445C20.9757 19.4823 21.0491 19.4034 21.105 19.3125C21.189 19.1106 21.2048 18.8867 21.15 18.675L20.8725 17.46C20.8372 17.2424 20.7319 17.0423 20.5725 16.89C20.4802 16.8212 20.3724 16.7762 20.2585 16.7592C20.1447 16.7422 20.0284 16.7536 19.92 16.7925Z" fill="url(#paint12_linear_47_226)"/>
<path d="M26.7 19.59C26.699 19.6444 26.6865 19.6979 26.6632 19.7471C26.64 19.7962 26.6065 19.8398 26.565 19.875C26.524 19.9132 26.4755 19.9423 26.4225 19.9604C26.3695 19.9785 26.3133 19.9851 26.2575 19.98L24.4875 19.935C24.4263 19.9353 24.3657 19.9236 24.309 19.9004C24.2524 19.8772 24.2009 19.8431 24.1575 19.8C24.1095 19.7659 24.0703 19.7209 24.0429 19.6688C24.0156 19.6167 24.0009 19.5589 24 19.5L24.09 15.8475C24.0894 15.7939 24.1013 15.741 24.1247 15.6928C24.1482 15.6447 24.1825 15.6026 24.225 15.57C24.2659 15.5291 24.3153 15.4977 24.3698 15.4783C24.4243 15.4588 24.4824 15.4517 24.54 15.4575C24.6554 15.4576 24.766 15.5034 24.8475 15.585C24.8862 15.6215 24.9169 15.6658 24.9376 15.7148C24.9582 15.7639 24.9684 15.8168 24.9675 15.87L24.885 19.1625L26.25 19.2C26.3044 19.1989 26.3584 19.209 26.4087 19.2297C26.459 19.2503 26.5045 19.2811 26.5425 19.32C26.5886 19.349 26.627 19.3887 26.6544 19.4357C26.6818 19.4827 26.6975 19.5356 26.7 19.59Z" fill="url(#paint13_linear_47_226)"/>
<path d="M30.6075 33.39C30.6075 33.39 67.065 67.0875 77.1075 73.9575C83.0175 78 88.02 80.7075 93.795 82.11C92.4525 84.5475 88.5975 88.2075 84.9375 87.7575C78.6525 87.0075 66.1875 77.745 50.9175 64.395C35.6475 51.045 24.6975 43.9125 25.3425 39.9975C25.665 38.1375 26.88 36.855 30.6075 33.39Z" fill="url(#paint14_linear_47_226)"/>
<path d="M40.1025 32.4225C42.5386 35.3847 45.7017 37.6639 49.2825 39.0375C54.165 40.8375 57.69 40.965 60.135 42.375C64.815 45.0675 68.6025 59.3175 77.205 60.99C77.7661 62.1124 78.387 63.204 79.065 64.26C74.7675 64.455 70.5 62.145 67.5 58.68C63.66 54.12 61.035 47.25 58.14 45.39C55.77 43.9125 46.65 43.5 39.525 36.855C39.9403 35.4151 40.135 33.9207 40.1025 32.4225Z" fill="url(#paint15_linear_47_226)"/>
<path d="M70.2075 39.5475C70.4025 40.125 70.5975 40.77 70.785 41.415C73.8675 50.7225 75.2175 54.6975 80.0925 62.9175C80.8425 64.2 81.6975 65.4825 82.5975 66.6675C84.78 69.615 87.4125 72.315 89.6625 75.2625" stroke="#492170" stroke-width="1.46" stroke-linecap="round" stroke-linejoin="round"/>
<path d="M44.34 19.59C44.8042 19.5043 45.2824 19.5355 45.7316 19.6808C46.1807 19.8261 46.5865 20.081 46.9125 20.4225C47.6625 21.3225 47.49 22.6725 47.49 23.8875C47.55 28.2525 51.0825 32.04 55.1925 33.3225C59.3025 34.605 63.9225 33.84 67.8375 32.04" stroke="#492170" stroke-width="1.46" stroke-linecap="round" stroke-linejoin="round"/>
<path d="M56.025 66.315C47.4225 58.815 38.775 51.36 30.1575 43.8525C28.8321 42.8246 27.6821 41.5886 26.7525 40.1925C25.92 38.6925 25.47 36.855 26.43 35.3175C27.39 33.78 29.0625 32.49 30.3525 31.14C33.1725 28.1925 36.06 25.365 39.075 22.605" stroke="#492170" stroke-width="1.46" stroke-linecap="round" stroke-linejoin="round"/>
<path d="M90.045 83.25C88.9608 84.5328 87.4615 85.3953 85.8075 85.6875C84.4618 85.7211 83.1322 85.3893 81.96 84.7275C75.0225 81.5775 68.7975 77.025 62.895 72.0825" stroke="#492170" stroke-width="1.46" stroke-linecap="round" stroke-linejoin="round"/>
<path d="M27 27.615C29.1225 29.925 49.5 48.6675 52.035 50.7825C57.1725 55.02 62.0475 59.58 67.185 63.8775C69.57 65.865 72 67.86 74.5125 69.75C76.9662 71.5528 79.5149 73.2227 82.1475 74.7525C84.8675 76.5444 87.8001 77.9905 90.8775 79.0575" stroke="#492170" stroke-width="1.46" stroke-linecap="round" stroke-linejoin="round"/>
<path d="M40.5 25.62C40.5 25.62 43.77 32.685 39.2175 42.375" stroke="#492170" stroke-width="1.46" stroke-linecap="round" stroke-linejoin="round"/>
<path d="M47.25 36.3375C50.4 38.0775 53.865 38.715 57.27 39.615C58.9207 39.9881 60.4727 40.7092 61.8225 41.73C63.0136 42.9003 64.0043 44.2584 64.755 45.75C70.08 54.99 74.3175 60.6375 81.6975 60" stroke="#492170" stroke-width="1.46" stroke-linecap="round" stroke-linejoin="round"/>
<path d="M38.1825 32.49C41.7075 37.8825 46.5 40.3875 54.75 42.375C56.1034 42.607 57.42 43.0182 58.665 43.5975C60.8475 44.88 62.0625 47.445 63.3525 49.5C65.6025 53.16 67.5825 57.2025 71.115 59.835" stroke="#492170" stroke-width="1.46" stroke-linecap="round" stroke-linejoin="round"/>
<path d="M58.14 36.405C58.14 36.405 60.135 29.6025 67.14 28.2525" stroke="#492170" stroke-width="1.46" stroke-linecap="round" stroke-linejoin="round"/>
<path d="M71.175 70.62C71.175 70.62 77.925 65.0325 84.3975 65.2875" stroke="#492170" stroke-width="1.46" stroke-linecap="round" stroke-linejoin="round"/>
<path d="M39.1425 87.435H72.9675" stroke="#492170" stroke-width="1.46" stroke-linecap="round" stroke-linejoin="round"/>
<path d="M18.6 87.435H32.145" stroke="#492170" stroke-width="1.46" stroke-linecap="round" stroke-linejoin="round"/>
<path d="M84.1425 35.3775V38.205" stroke="url(#paint16_linear_47_226)" stroke-width="1.46" stroke-linecap="round" stroke-linejoin="round"/>
<path d="M82.725 36.7875H85.5" stroke="url(#paint17_linear_47_226)" stroke-width="1.46" stroke-linecap="round" stroke-linejoin="round"/>
<path d="M79.2 38.91C79.3532 38.91 79.5001 38.8492 79.6084 38.7409C79.7167 38.6326 79.7775 38.4857 79.7775 38.3325C79.7775 38.1793 79.7167 38.0325 79.6084 37.9242C79.5001 37.8158 79.3532 37.755 79.2 37.755C79.0468 37.755 78.8999 37.8158 78.7916 37.9242C78.6833 38.0325 78.6225 38.1793 78.6225 38.3325C78.6225 38.4857 78.6833 38.6326 78.7916 38.7409C78.8999 38.8492 79.0468 38.91 79.2 38.91Z" fill="url(#paint18_linear_47_226)"/>
<path d="M81.06 32.685C81.2132 32.685 81.3601 32.6242 81.4684 32.5159C81.5767 32.4075 81.6375 32.2607 81.6375 32.1075C81.6375 31.9543 81.5767 31.8074 81.4684 31.6991C81.3601 31.5908 81.2132 31.53 81.06 31.53C80.9842 31.53 80.9091 31.5449 80.839 31.574C80.7689 31.603 80.7053 31.6455 80.6516 31.6991C80.598 31.7528 80.5555 31.8164 80.5265 31.8865C80.4974 31.9566 80.4825 32.0317 80.4825 32.1075C80.4825 32.1833 80.4974 32.2584 80.5265 32.3285C80.5555 32.3986 80.598 32.4622 80.6516 32.5159C80.7053 32.5695 80.7689 32.612 80.839 32.641C80.9091 32.6701 80.9842 32.685 81.06 32.685Z" fill="url(#paint19_linear_47_226)"/>
</g>
<defs>
<linearGradient id="paint0_linear_47_226" x1="25.313" y1="56.1511" x2="25.313" y2="60.7508" gradientUnits="userSpaceOnUse">
<stop stop-color="#4481EB"/>
<stop offset="1" stop-color="#04BEFE"/>
</linearGradient>
<linearGradient id="paint1_linear_47_226" x1="20.8388" y1="55.4833" x2="20.8388" y2="60.2643" gradientUnits="userSpaceOnUse">
<stop stop-color="#4481EB"/>
<stop offset="1" stop-color="#04BEFE"/>
</linearGradient>
<linearGradient id="paint2_linear_47_226" x1="15.3376" y1="53.5464" x2="15.3376" y2="58.7242" gradientUnits="userSpaceOnUse">
<stop stop-color="#4481EB"/>
<stop offset="1" stop-color="#04BEFE"/>
</linearGradient>
<linearGradient id="paint3_linear_47_226" x1="11.1516" y1="51.0962" x2="11.1516" y2="55.305" gradientUnits="userSpaceOnUse">
<stop stop-color="#4481EB"/>
<stop offset="1" stop-color="#04BEFE"/>
</linearGradient>
<linearGradient id="paint4_linear_47_226" x1="8.27512" y1="48.4239" x2="8.27512" y2="50.5302" gradientUnits="userSpaceOnUse">
<stop stop-color="#4481EB"/>
<stop offset="1" stop-color="#04BEFE"/>
</linearGradient>
<linearGradient id="paint5_linear_47_226" x1="5.71097" y1="43.4018" x2="5.71097" y2="47.1779" gradientUnits="userSpaceOnUse">
<stop stop-color="#4481EB"/>
<stop offset="1" stop-color="#04BEFE"/>
</linearGradient>
<linearGradient id="paint6_linear_47_226" x1="4.57947" y1="38.703" x2="4.57947" y2="41.7762" gradientUnits="userSpaceOnUse">
<stop stop-color="#4481EB"/>
<stop offset="1" stop-color="#04BEFE"/>
</linearGradient>
<linearGradient id="paint7_linear_47_226" x1="4.50919" y1="33.7246" x2="4.50919" y2="37.1354" gradientUnits="userSpaceOnUse">
<stop stop-color="#4481EB"/>
<stop offset="1" stop-color="#04BEFE"/>
</linearGradient>
<linearGradient id="paint8_linear_47_226" x1="6.10358" y1="29.6253" x2="6.10358" y2="31.9138" gradientUnits="userSpaceOnUse">
<stop stop-color="#4481EB"/>
<stop offset="1" stop-color="#04BEFE"/>
</linearGradient>
<linearGradient id="paint9_linear_47_226" x1="7.80352" y1="24.7295" x2="7.80352" y2="29.0096" gradientUnits="userSpaceOnUse">
<stop stop-color="#4481EB"/>
<stop offset="1" stop-color="#04BEFE"/>
</linearGradient>
<linearGradient id="paint10_linear_47_226" x1="11.1294" y1="20.527" x2="11.1294" y2="25.4701" gradientUnits="userSpaceOnUse">
<stop stop-color="#4481EB"/>
<stop offset="1" stop-color="#04BEFE"/>
</linearGradient>
<linearGradient id="paint11_linear_47_226" x1="15.2455" y1="17.8513" x2="15.2455" y2="22.3406" gradientUnits="userSpaceOnUse">
<stop stop-color="#4481EB"/>
<stop offset="1" stop-color="#04BEFE"/>
</linearGradient>
<linearGradient id="paint12_linear_47_226" x1="20.2409" y1="15.9898" x2="20.2409" y2="20.4915" gradientUnits="userSpaceOnUse">
<stop stop-color="#4481EB"/>
<stop offset="1" stop-color="#04BEFE"/>
</linearGradient>
<linearGradient id="paint13_linear_47_226" x1="25.35" y1="15.4556" x2="25.35" y2="19.9817" gradientUnits="userSpaceOnUse">
<stop stop-color="#4481EB"/>
<stop offset="1" stop-color="#04BEFE"/>
</linearGradient>
<linearGradient id="paint14_linear_47_226" x1="59.5552" y1="33.39" x2="59.5552" y2="87.7954" gradientUnits="userSpaceOnUse">
<stop stop-color="#4481EB"/>
<stop offset="1" stop-color="#04BEFE"/>
</linearGradient>
<linearGradient id="paint15_linear_47_226" x1="59.295" y1="32.4225" x2="59.295" y2="64.2715" gradientUnits="userSpaceOnUse">
<stop stop-color="#4481EB"/>
<stop offset="1" stop-color="#04BEFE"/>
</linearGradient>
<linearGradient id="paint16_linear_47_226" x1="84.6425" y1="35.3775" x2="84.6425" y2="38.205" gradientUnits="userSpaceOnUse">
<stop stop-color="#4481EB"/>
<stop offset="1" stop-color="#04BEFE"/>
</linearGradient>
<linearGradient id="paint17_linear_47_226" x1="84.1125" y1="36.7875" x2="84.1125" y2="37.7875" gradientUnits="userSpaceOnUse">
<stop stop-color="#4481EB"/>
<stop offset="1" stop-color="#04BEFE"/>
</linearGradient>
<linearGradient id="paint18_linear_47_226" x1="79.2" y1="37.755" x2="79.2" y2="38.91" gradientUnits="userSpaceOnUse">
<stop stop-color="#4481EB"/>
<stop offset="1" stop-color="#04BEFE"/>
</linearGradient>
<linearGradient id="paint19_linear_47_226" x1="81.06" y1="31.53" x2="81.06" y2="32.685" gradientUnits="userSpaceOnUse">
<stop stop-color="#4481EB"/>
<stop offset="1" stop-color="#04BEFE"/>
</linearGradient>
<clipPath id="clip0_47_226">
<rect width="96" height="96" fill="white"/>
</clipPath>
</defs>
</svg>
