<svg width="97" height="96" viewBox="0 0 97 96" fill="none" xmlns="http://www.w3.org/2000/svg">
<g clip-path="url(#clip0_47_36)">
<path d="M27.84 55.9575C27.9188 55.9381 28.0012 55.9381 28.08 55.9575C28.1587 55.9644 28.234 55.9929 28.2975 56.04L30.5475 57.84L29.7225 55.7025C29.7021 55.6538 29.6916 55.6015 29.6916 55.5488C29.6916 55.496 29.7021 55.4437 29.7225 55.395C29.7737 55.2914 29.8621 55.2111 29.97 55.17C30.0735 55.1287 30.189 55.1287 30.2925 55.17C30.3423 55.1884 30.3876 55.2174 30.4251 55.2549C30.4627 55.2924 30.4916 55.3377 30.51 55.3875L31.8075 58.7625C31.8296 58.8134 31.841 58.8683 31.841 58.9238C31.841 58.9792 31.8296 59.0341 31.8075 59.085C31.7811 59.1382 31.7442 59.1855 31.6991 59.2242C31.6541 59.2629 31.6016 59.292 31.545 59.31C31.4662 59.3294 31.3838 59.3294 31.305 59.31C31.2246 59.2958 31.148 59.2652 31.08 59.22L30.495 58.7475L29.9775 58.3275C29.8125 58.185 29.6325 58.0425 29.4525 57.9L28.8525 57.405L29.685 59.5725C29.7088 59.6203 29.7212 59.6729 29.7212 59.7262C29.7212 59.7796 29.7088 59.8322 29.685 59.88C29.6606 59.9311 29.626 59.9767 29.5835 60.014C29.541 60.0514 29.4913 60.0798 29.4375 60.0975C29.3866 60.1196 29.3317 60.131 29.2763 60.131C29.2208 60.131 29.1659 60.1196 29.115 60.0975C29.0668 60.0778 29.0233 60.0483 28.9871 60.0108C28.951 59.9734 28.923 59.9288 28.905 59.88L27.6 56.505C27.5779 56.4541 27.5665 56.3992 27.5665 56.3437C27.5665 56.2883 27.5779 56.2334 27.6 56.1825C27.6487 56.0799 27.7345 55.9995 27.84 55.9575Z" fill="url(#paint0_linear_47_36)"/>
<path d="M25.7625 56.8425L26.3325 60.4425C26.3416 60.4967 26.339 60.5522 26.3248 60.6052C26.3105 60.6583 26.285 60.7077 26.25 60.75C26.2158 60.795 26.1729 60.8327 26.124 60.861C26.0751 60.8894 26.0211 60.9077 25.965 60.915C25.8553 60.9321 25.7431 60.9081 25.65 60.8475C25.6057 60.8186 25.5677 60.7812 25.5381 60.7374C25.5084 60.6936 25.4879 60.6443 25.4775 60.5925L24.915 57C24.908 56.9482 24.9118 56.8955 24.926 56.8452C24.9401 56.7949 24.9645 56.748 24.9975 56.7075C25.0321 56.6636 25.0752 56.627 25.1241 56.6C25.1731 56.573 25.2269 56.556 25.2825 56.55C25.3368 56.5382 25.393 56.5381 25.4473 56.5497C25.5016 56.5613 25.5528 56.5845 25.5975 56.6175C25.6392 56.6414 25.6753 56.6738 25.7038 56.7126C25.7322 56.7513 25.7522 56.7956 25.7625 56.8425Z" fill="url(#paint1_linear_47_36)"/>
<path d="M20.1525 60.4275L21.435 59.1L20.175 57.2625C20.1482 57.2301 20.1302 57.1914 20.1225 57.15C20.1188 57.1176 20.1188 57.0849 20.1225 57.0525C20.1252 57.003 20.138 56.9545 20.16 56.91C20.1774 56.8618 20.2057 56.8182 20.2425 56.7825C20.2839 56.7474 20.3292 56.7172 20.3775 56.6925C20.4365 56.6769 20.4985 56.6769 20.5575 56.6925C20.6263 56.6912 20.6943 56.7078 20.7548 56.7407C20.8152 56.7735 20.8661 56.8216 20.9025 56.88L22.0125 58.5L22.1325 58.38L22.185 57.135C22.1874 57.0812 22.2014 57.0286 22.226 56.9807C22.2506 56.9328 22.2852 56.8908 22.3275 56.8575C22.3687 56.8197 22.4173 56.7909 22.4703 56.7728C22.5232 56.7547 22.5793 56.7478 22.635 56.7525C22.6903 56.7542 22.7447 56.7671 22.795 56.7903C22.8452 56.8135 22.8903 56.8465 22.9275 56.8875C22.9662 56.924 22.9969 56.9683 23.0176 57.0173C23.0382 57.0664 23.0484 57.1193 23.0475 57.1725L22.8825 60.81C22.8791 60.8617 22.8654 60.9122 22.8422 60.9586C22.819 61.005 22.7868 61.0462 22.7475 61.08C22.661 61.1508 22.5518 61.1881 22.44 61.185C22.3265 61.1795 22.2194 61.1313 22.14 61.05C22.1016 61.0152 22.0715 60.9721 22.0521 60.9241C22.0326 60.8761 22.0242 60.8242 22.0275 60.7725L22.08 59.61L20.805 60.93C20.7603 60.9794 20.7069 61.0201 20.6475 61.05C20.5839 61.0791 20.5149 61.0945 20.445 61.095C20.3979 61.1043 20.3495 61.1043 20.3025 61.095C20.2522 61.0739 20.2063 61.0433 20.1675 61.005C20.1291 60.9646 20.0963 60.9192 20.07 60.87C20.0587 60.8206 20.0587 60.7694 20.07 60.72C20.0621 60.6804 20.0621 60.6396 20.07 60.6C20.0824 60.5365 20.1108 60.4771 20.1525 60.4275Z" fill="url(#paint2_linear_47_36)"/>
<path d="M16.05 56.0475C16.0634 55.9957 16.0887 55.9477 16.1238 55.9074C16.159 55.867 16.203 55.8354 16.2525 55.815C16.356 55.7737 16.4715 55.7737 16.575 55.815L18.135 56.2725C18.2686 56.3124 18.3916 56.3816 18.495 56.475C18.5395 56.5254 18.5692 56.587 18.5811 56.6531C18.593 56.7192 18.5866 56.7873 18.5625 56.85L17.5875 60.165C17.5702 60.219 17.542 60.2688 17.5045 60.3114C17.4671 60.354 17.4213 60.3884 17.37 60.4125C17.313 60.4364 17.2518 60.4488 17.19 60.4488C17.1282 60.4488 17.067 60.4364 17.01 60.4125L15.4125 59.94C15.305 59.9113 15.2133 59.8412 15.1575 59.745C15.1277 59.7002 15.1088 59.6491 15.1023 59.5957C15.0958 59.5423 15.1019 59.4881 15.12 59.4375C15.132 59.3871 15.156 59.3403 15.19 59.3012C15.2239 59.262 15.2668 59.2316 15.315 59.2125C15.4185 59.1712 15.534 59.1712 15.6375 59.2125L16.86 59.5725L17.1375 58.6275L16.0275 58.2975C15.9237 58.2696 15.8349 58.2024 15.78 58.11C15.7484 58.0676 15.7271 58.0184 15.718 57.9663C15.7089 57.9142 15.7121 57.8606 15.7275 57.81C15.7411 57.7594 15.7656 57.7124 15.7993 57.6722C15.833 57.632 15.875 57.5997 15.9225 57.5775C16.026 57.5362 16.1415 57.5362 16.245 57.5775L17.355 57.9075L17.64 56.9475L16.3575 56.5725C16.25 56.5438 16.1583 56.4737 16.1025 56.3775C16.0637 56.333 16.0382 56.2784 16.0289 56.22C16.0196 56.1617 16.0269 56.1019 16.05 56.0475Z" fill="url(#paint3_linear_47_36)"/>
<path d="M12 55.5975C12.0239 55.5536 12.0571 55.5155 12.0973 55.4857C12.1374 55.4559 12.1836 55.4352 12.2325 55.425C12.3371 55.403 12.4461 55.419 12.54 55.47L13.8675 56.22C13.9654 56.2705 14.0404 56.3563 14.0775 56.46C14.0978 56.5048 14.1083 56.5534 14.1083 56.6025C14.1083 56.6517 14.0978 56.7002 14.0775 56.745C14.0529 56.7891 14.0196 56.8278 13.9796 56.8587C13.9397 56.8897 13.8939 56.9122 13.845 56.925C13.7396 56.9484 13.6292 56.9296 13.5375 56.8725L12.2025 56.1225C12.1093 56.0738 12.0392 55.9902 12.0075 55.89C11.9838 55.8451 11.9709 55.7954 11.9696 55.7446C11.9683 55.6939 11.9787 55.6436 12 55.5975Z" fill="url(#paint4_linear_47_36)"/>
<path d="M7.35751 53.25C7.53438 53.0437 7.77421 52.9014 8.04001 52.845C8.29563 52.8079 8.55652 52.847 8.79001 52.9575L9.03001 51.4575C9.04094 51.3741 9.08074 51.2971 9.14251 51.24C9.19548 51.1918 9.2601 51.1582 9.33001 51.1425C9.40129 51.1237 9.47622 51.1237 9.54751 51.1425C9.61851 51.1551 9.68395 51.1891 9.73501 51.24C9.78977 51.2858 9.83121 51.3454 9.85497 51.4127C9.87872 51.48 9.88392 51.5525 9.87001 51.6225L9.53251 53.505L9.84001 53.79L10.7925 52.755C10.8721 52.6785 10.9783 52.6357 11.0888 52.6357C11.1992 52.6357 11.3054 52.6785 11.385 52.755C11.4284 52.7906 11.4636 52.8352 11.4882 52.8857C11.5128 52.9362 11.5262 52.9914 11.5275 53.0475C11.5314 53.1009 11.5241 53.1545 11.5061 53.2049C11.488 53.2553 11.4595 53.3013 11.4225 53.34L9.00001 55.9725C8.96056 56.0167 8.91191 56.0516 8.85749 56.075C8.80306 56.0983 8.74419 56.1094 8.68501 56.1075C8.62429 56.1092 8.56384 56.0988 8.50718 56.0769C8.45053 56.055 8.39879 56.0221 8.35501 55.98L7.60501 55.23C7.41798 55.0676 7.26283 54.8717 7.14751 54.6525C7.06129 54.4877 7.01262 54.3058 7.00501 54.12C7.00258 53.9548 7.03584 53.7911 7.10251 53.64C7.16667 53.4975 7.25271 53.3659 7.35751 53.25ZM7.98751 53.8275C7.94545 53.8777 7.91015 53.9331 7.88251 53.9925C7.86347 54.0535 7.86347 54.1189 7.88251 54.18C7.8913 54.2618 7.91683 54.341 7.95751 54.4125C8.0173 54.512 8.09048 54.6029 8.17501 54.6825L8.65501 55.1175L9.34501 54.3675L8.84251 53.9025C8.72524 53.7762 8.56979 53.6919 8.40001 53.6625C8.32105 53.6567 8.24189 53.6708 8.16981 53.7036C8.09774 53.7363 8.03505 53.7867 7.98751 53.85V53.8275Z" fill="url(#paint5_linear_47_36)"/>
<path d="M6.60751 47.7825C6.65237 47.753 6.70314 47.7337 6.75627 47.7259C6.8094 47.7181 6.86358 47.7221 6.91501 47.7375C7.02299 47.7647 7.11672 47.8317 7.17751 47.925L8.07001 49.29C8.14929 49.4027 8.196 49.535 8.20501 49.6725C8.20759 49.7395 8.19141 49.8059 8.15828 49.8642C8.12515 49.9225 8.0764 49.9704 8.01751 50.0025L5.12251 51.8925C5.07516 51.9227 5.02214 51.943 4.96668 51.952C4.91122 51.9611 4.85451 51.9587 4.80001 51.945C4.67919 51.9197 4.5722 51.8501 4.50001 51.75L3.59251 50.3475C3.5601 50.3011 3.53741 50.2486 3.52581 50.1931C3.51421 50.1377 3.51394 50.0805 3.52501 50.025C3.53227 49.973 3.5508 49.9233 3.5793 49.8792C3.6078 49.8352 3.64559 49.7979 3.69001 49.77C3.73373 49.7411 3.78322 49.7221 3.83504 49.7144C3.88685 49.7066 3.93974 49.7102 3.99001 49.725C4.09546 49.7577 4.18585 49.8268 4.24501 49.92L4.94251 51L5.76751 50.46L5.13751 49.5C5.07741 49.4095 5.05333 49.2998 5.07001 49.1925C5.07448 49.1339 5.09322 49.0773 5.12459 49.0276C5.15597 48.9779 5.19903 48.9367 5.25001 48.9075C5.29351 48.8781 5.34302 48.8589 5.39492 48.8511C5.44682 48.8433 5.49981 48.8472 5.55001 48.8625C5.65831 48.889 5.75227 48.9562 5.81251 49.05L6.44251 50.0175L7.26001 49.5L6.51001 48.3825C6.45184 48.2912 6.42792 48.1822 6.44251 48.075C6.44132 48.0159 6.456 47.9576 6.48502 47.9062C6.51404 47.8547 6.55635 47.812 6.60751 47.7825Z" fill="url(#paint6_linear_47_36)"/>
<path d="M5.18251 45.6525H5.83501C5.92785 45.6588 6.01668 45.6927 6.09001 45.75C6.15558 45.7997 6.20513 45.8675 6.23251 45.945C6.27026 46.0518 6.27026 46.1682 6.23251 46.275C6.21634 46.3293 6.18645 46.3785 6.14573 46.418C6.10501 46.4574 6.05482 46.4856 6.00001 46.5H5.94001H5.87251H2.18251C2.06728 46.5009 1.95287 46.4806 1.84501 46.44C1.79111 46.4119 1.74383 46.3726 1.70632 46.3247C1.66882 46.2769 1.64195 46.2216 1.62751 46.1625C1.60309 46.1083 1.59045 46.0495 1.59045 45.99C1.59045 45.9305 1.60309 45.8717 1.62751 45.8175C1.68515 45.7165 1.76151 45.6274 1.85251 45.555L4.77751 43.305H4.83751H4.90501C4.95323 43.2828 5.00568 43.2713 5.05876 43.2713C5.11185 43.2713 5.1643 43.2828 5.21251 43.305C5.29993 43.3574 5.36733 43.4376 5.40402 43.5327C5.44071 43.6278 5.44458 43.7324 5.41501 43.83C5.396 43.9197 5.34543 43.9995 5.27251 44.055L4.75501 44.46L5.18251 45.6525ZM4.17001 44.85L3.27751 45.48L3.00001 45.6375L2.74501 45.75L3.04501 45.6975C3.14475 45.6872 3.24528 45.6872 3.34501 45.6975H4.44751L4.17001 44.85Z" fill="url(#paint7_linear_47_36)"/>
<path d="M2.18252 41.1975L3.39002 41.1075C3.61138 41.1004 3.82556 41.0273 4.00502 40.8975C4.0836 40.8241 4.14208 40.7318 4.1749 40.6294C4.20772 40.527 4.21379 40.4179 4.19252 40.3125C4.18029 40.1303 4.11512 39.9557 4.00502 39.81V39.7575L3.93002 39.6525C3.90956 39.6022 3.89692 39.5491 3.89252 39.495C3.88702 39.4427 3.89216 39.3898 3.90763 39.3395C3.92309 39.2893 3.94857 39.2427 3.98252 39.2025C4.01194 39.1638 4.0492 39.1318 4.09185 39.1086C4.1345 39.0853 4.18158 39.0713 4.23002 39.0675C4.32581 39.0628 4.41974 39.095 4.49252 39.1575C4.58418 39.2292 4.66067 39.3184 4.71752 39.42C4.78977 39.5456 4.84764 39.6789 4.89002 39.8175C4.93582 39.969 4.96598 40.1248 4.98002 40.2825C5.00422 40.5192 4.98387 40.7583 4.92002 40.9875C4.86655 41.1776 4.76889 41.3523 4.63502 41.4975C4.49933 41.6409 4.33255 41.7512 4.14752 41.82C3.93858 41.9006 3.71852 41.9486 3.49502 41.9625L2.25002 42.0525C2.02887 42.0872 1.80366 42.0872 1.58252 42.0525C1.39064 42.012 1.21087 41.9272 1.05752 41.805C0.901873 41.6824 0.776196 41.5259 0.690016 41.3475C0.594841 41.129 0.538984 40.8954 0.525016 40.6575C0.509809 40.5004 0.509809 40.3421 0.525016 40.185C0.551978 40.0359 0.594718 39.8901 0.652516 39.75C0.698102 39.6404 0.761451 39.539 0.840016 39.45C0.904449 39.379 0.992344 39.3338 1.08752 39.3225C1.13561 39.3199 1.18372 39.3273 1.22886 39.3441C1.27401 39.3608 1.31524 39.3867 1.35002 39.42C1.39148 39.4552 1.42498 39.4988 1.44825 39.5479C1.47153 39.5971 1.48407 39.6506 1.48502 39.705C1.49454 39.7545 1.49454 39.8054 1.48502 39.855C1.48502 39.855 1.44752 39.93 1.42502 39.975V40.035C1.33856 40.1931 1.2995 40.3728 1.31252 40.5525C1.30838 40.6609 1.33164 40.7685 1.38014 40.8656C1.42865 40.9626 1.50083 41.0458 1.59002 41.1075C1.77445 41.1948 1.98046 41.2261 2.18252 41.1975Z" fill="url(#paint8_linear_47_36)"/>
<path d="M4.69499 36.5325L1.49999 36L1.39499 36.6375C1.37871 36.7502 1.31961 36.8523 1.22999 36.9225C1.19047 36.9544 1.14464 36.9776 1.09552 36.9905C1.0464 37.0034 0.995099 37.0058 0.944991 36.9975C0.898664 36.9913 0.854731 36.9732 0.817491 36.945C0.7897 36.9137 0.76693 36.8783 0.749991 36.84C0.719963 36.7937 0.697199 36.7431 0.682491 36.69C0.667197 36.6335 0.667197 36.574 0.682491 36.5175L1.04249 34.3875C1.06123 34.2795 1.1169 34.1814 1.19999 34.11C1.24055 34.0743 1.28836 34.0477 1.34014 34.0322C1.39193 34.0166 1.44645 34.0125 1.49999 34.02C1.5511 34.0296 1.59959 34.0499 1.64226 34.0797C1.68492 34.1094 1.72079 34.1479 1.74749 34.1925C1.80807 34.2883 1.82955 34.4038 1.80749 34.515L1.70249 35.16L4.86749 35.685C4.9186 35.6946 4.96709 35.7149 5.00976 35.7447C5.05242 35.7744 5.08829 35.8129 5.11499 35.8575C5.1476 35.9024 5.17046 35.9536 5.18208 36.0078C5.19371 36.0621 5.19385 36.1182 5.18249 36.1725C5.1641 36.2844 5.10542 36.3858 5.01749 36.4575C4.97399 36.4954 4.92183 36.5221 4.8656 36.5352C4.80936 36.5483 4.75078 36.5474 4.69499 36.5325Z" fill="url(#paint9_linear_47_36)"/>
<path d="M4.7625 30.9375C4.80928 30.956 4.85156 30.9844 4.88649 31.0206C4.92142 31.0568 4.94819 31.1001 4.965 31.1475C4.98542 31.1962 4.99593 31.2485 4.99593 31.3013C4.99593 31.3541 4.98542 31.4063 4.965 31.455L4.41 32.8725C4.37427 32.977 4.29883 33.0632 4.2 33.1125C4.15523 33.1328 4.10665 33.1433 4.0575 33.1433C4.00834 33.1433 3.95976 33.1328 3.915 33.1125C3.83657 33.0716 3.77732 33.0016 3.75 32.9175C3.72763 32.868 3.71606 32.8143 3.71606 32.76C3.71606 32.7057 3.72763 32.652 3.75 32.6025L4.305 31.1775C4.34018 31.0787 4.41296 30.9979 4.5075 30.9525C4.5878 30.9165 4.67852 30.9112 4.7625 30.9375Z" fill="url(#paint10_linear_47_36)"/>
<path d="M8.3325 27.825C8.37649 27.8551 8.41383 27.894 8.44221 27.9391C8.47059 27.9843 8.48941 28.0348 8.4975 28.0875C8.51397 28.1982 8.48711 28.3111 8.4225 28.4025L7.5 29.7525C7.42536 29.8691 7.32208 29.9647 7.2 30.03C7.14195 30.0594 7.07688 30.0722 7.01202 30.0669C6.94715 30.0616 6.88502 30.0384 6.8325 30L3.975 28.05C3.92549 28.0162 3.88426 27.9717 3.85439 27.9198C3.82452 27.8678 3.80678 27.8098 3.8025 27.75C3.78694 27.6894 3.78562 27.6261 3.79863 27.5649C3.81164 27.5038 3.83864 27.4465 3.8775 27.3975L4.8 26.04C4.86366 25.9462 4.95988 25.8794 5.07 25.8525C5.1209 25.8398 5.17389 25.8379 5.22557 25.8469C5.27725 25.856 5.32645 25.8758 5.37 25.905C5.41537 25.9311 5.45352 25.968 5.48102 26.0126C5.50852 26.0571 5.52449 26.1078 5.5275 26.16C5.54182 26.2717 5.51225 26.3846 5.445 26.475L4.695 27.5325L5.52 28.08L6.165 27.12C6.22836 27.0341 6.31781 26.9709 6.42 26.94C6.47566 26.9218 6.53498 26.9178 6.59259 26.9282C6.65021 26.9387 6.70431 26.9634 6.75 27C6.7943 27.0298 6.83187 27.0686 6.86029 27.1138C6.88871 27.159 6.90735 27.2097 6.915 27.2625C6.93106 27.3709 6.90414 27.4812 6.84 27.57L6.2025 28.5L7.0275 29.055L7.7775 27.945C7.83538 27.8522 7.92664 27.7851 8.0325 27.7575C8.08436 27.7454 8.13829 27.7451 8.19025 27.7568C8.24221 27.7685 8.29084 27.7918 8.3325 27.825Z" fill="url(#paint11_linear_47_36)"/>
<path d="M11.31 24.8625C11.3455 24.9004 11.3725 24.9454 11.3893 24.9945C11.4061 25.0437 11.4123 25.0958 11.4075 25.1475C11.402 25.2566 11.3535 25.3591 11.2725 25.4325L10.005 26.61C9.91754 26.6918 9.80226 26.7374 9.68249 26.7375C9.62558 26.7412 9.56855 26.7324 9.51542 26.7116C9.46229 26.6909 9.41435 26.6588 9.37499 26.6175L6.95249 24C6.9178 23.9616 6.89126 23.9165 6.8745 23.8675C6.85774 23.8185 6.85111 23.7666 6.85499 23.715C6.86817 23.6042 6.91839 23.5012 6.99749 23.4225C7.03823 23.3831 7.0864 23.3522 7.13919 23.3316C7.19198 23.311 7.24834 23.3011 7.30499 23.3025C7.35725 23.3007 7.40926 23.3105 7.45726 23.3312C7.50525 23.352 7.54803 23.3832 7.58249 23.4225L9.74999 25.7775L10.725 24.87C10.8017 24.7958 10.9033 24.753 11.01 24.75C11.0652 24.7454 11.1207 24.7531 11.1726 24.7726C11.2245 24.792 11.2714 24.8227 11.31 24.8625Z" fill="url(#paint12_linear_47_36)"/>
<path d="M14.8575 22.665C14.8779 22.7137 14.8884 22.766 14.8884 22.8188C14.8884 22.8716 14.8779 22.9238 14.8575 22.9725C14.823 23.0814 14.7478 23.1728 14.6475 23.2275L13.2675 24C13.1503 24.0726 13.0154 24.1116 12.8775 24.1125C12.8094 24.1116 12.7429 24.0914 12.6858 24.0542C12.6287 24.017 12.5834 23.9644 12.555 23.9025L10.8525 20.9025C10.8298 20.8505 10.8181 20.7943 10.8181 20.7375C10.8181 20.6807 10.8298 20.6246 10.8525 20.5725C10.8677 20.5118 10.8956 20.455 10.9344 20.4059C10.9732 20.3567 11.022 20.3164 11.0775 20.2875L12.4875 19.5C12.5844 19.442 12.6997 19.4232 12.81 19.4475C12.8613 19.4593 12.9096 19.4813 12.9521 19.5122C12.9947 19.5431 13.0305 19.5824 13.0575 19.6275C13.0812 19.674 13.0936 19.7254 13.0936 19.7775C13.0936 19.8297 13.0812 19.8811 13.0575 19.9275C13.0184 20.0319 12.9441 20.1194 12.8475 20.175L11.7375 20.805L12.225 21.66L13.23 21.09C13.3232 21.037 13.433 21.0209 13.5375 21.045C13.5904 21.0521 13.641 21.0713 13.6853 21.1012C13.7296 21.1312 13.7662 21.171 13.7925 21.2175C13.8127 21.2649 13.8231 21.316 13.8231 21.3675C13.8231 21.4191 13.8127 21.4701 13.7925 21.5175C13.7558 21.621 13.6842 21.7086 13.59 21.765L12.5775 22.3425L13.0725 23.205L14.235 22.545C14.3303 22.4902 14.4421 22.4716 14.55 22.4925C14.6119 22.4917 14.6729 22.5073 14.7269 22.5375C14.7808 22.5678 14.8259 22.6118 14.8575 22.665Z" fill="url(#paint13_linear_47_36)"/>
<path d="M19.2525 17.6025L20.1225 21.1425C20.1366 21.192 20.1393 21.2441 20.1302 21.2948C20.1211 21.3455 20.1005 21.3935 20.07 21.435C20.0049 21.5261 19.9092 21.5907 19.8003 21.6168C19.6915 21.643 19.5769 21.629 19.4775 21.5775C19.4308 21.5553 19.3897 21.5228 19.3573 21.4826C19.3248 21.4424 19.3018 21.3953 19.29 21.345L18.7875 19.2975L18.435 20.7975C18.4198 20.879 18.3775 20.953 18.315 21.0075C18.2539 21.0638 18.1787 21.1026 18.0975 21.12C18.0217 21.1427 17.9408 21.1427 17.865 21.12C17.7824 21.1029 17.7083 21.0578 17.655 20.9925L16.65 19.8225L17.1525 21.87C17.1636 21.9219 17.1633 21.9756 17.1516 22.0274C17.14 22.0792 17.1172 22.1278 17.085 22.17C17.0222 22.2632 16.9252 22.3278 16.815 22.35C16.7091 22.3792 16.5961 22.3657 16.5 22.3125C16.4547 22.2894 16.4151 22.2566 16.384 22.2164C16.3529 22.1762 16.331 22.1296 16.32 22.08L15.45 18.54C15.4339 18.487 15.4303 18.431 15.4394 18.3764C15.4485 18.3217 15.4701 18.2699 15.5025 18.225C15.5685 18.1302 15.6674 18.0634 15.78 18.0375C15.8633 18.0108 15.9526 18.0094 16.0367 18.0334C16.1208 18.0574 16.1959 18.1058 16.2525 18.1725L17.835 20.01L18.375 17.6475C18.3907 17.5602 18.4356 17.4808 18.5025 17.4225C18.5697 17.3727 18.6462 17.337 18.7275 17.3175C18.8407 17.287 18.9612 17.3004 19.065 17.355C19.1118 17.3809 19.1527 17.4162 19.185 17.4589C19.2173 17.5015 19.2403 17.5504 19.2525 17.6025Z" fill="url(#paint14_linear_47_36)"/>
<path d="M24.525 21.075C24.525 21.1285 24.5129 21.1812 24.4895 21.2293C24.4661 21.2774 24.4321 21.3195 24.39 21.3525C24.3068 21.4241 24.1997 21.4616 24.09 21.4575L22.5 21.4125C22.3603 21.4084 22.2237 21.3697 22.1025 21.3C22.0454 21.2642 22.0001 21.2124 21.9721 21.1511C21.9441 21.0898 21.9347 21.0216 21.945 20.955L22.0425 17.505C22.0573 17.3871 22.1154 17.2788 22.2055 17.2012C22.2955 17.1236 22.4112 17.0822 22.53 17.085L24.195 17.1375C24.251 17.1377 24.3064 17.1491 24.3579 17.171C24.4094 17.1929 24.456 17.2248 24.495 17.265C24.5322 17.3008 24.5614 17.344 24.5808 17.3918C24.6002 17.4396 24.6093 17.4909 24.6075 17.5425C24.6087 17.5951 24.5971 17.6472 24.5736 17.6943C24.55 17.7413 24.5153 17.7819 24.4725 17.8125C24.3863 17.8832 24.2762 17.9181 24.165 17.91L22.8975 17.8725V18.8625L24 18.9C24.1059 18.8995 24.208 18.9398 24.285 19.0125C24.3263 19.0474 24.3592 19.0911 24.3813 19.1405C24.4033 19.1898 24.414 19.2435 24.4125 19.2975C24.4114 19.3497 24.3987 19.401 24.3754 19.4477C24.352 19.4944 24.3186 19.5353 24.2775 19.5675C24.2377 19.6051 24.1904 19.6339 24.1387 19.6519C24.087 19.67 24.0321 19.677 23.9775 19.6725H22.815V20.67L24.1575 20.7075C24.266 20.7121 24.3695 20.7546 24.45 20.8275C24.4782 20.8618 24.4993 20.9013 24.5122 20.9438C24.525 20.9863 24.5294 21.0308 24.525 21.075Z" fill="url(#paint15_linear_47_36)"/>
<path d="M28.5675 22.5C28.4886 22.478 28.4165 22.4367 28.3575 22.38C28.2988 22.3241 28.255 22.2545 28.23 22.1775L27.5625 19.4025L26.9175 21.6C26.9026 21.6511 26.8768 21.6984 26.8418 21.7385C26.8068 21.7787 26.7636 21.8107 26.715 21.8325C26.6641 21.8546 26.6092 21.866 26.5537 21.866C26.4983 21.866 26.4434 21.8546 26.3925 21.8325C26.2869 21.8042 26.1966 21.7359 26.1406 21.6421C26.0845 21.5483 26.0673 21.4363 26.0925 21.33L27.1125 17.8575C27.1259 17.8039 27.151 17.7539 27.186 17.7111C27.221 17.6683 27.2651 17.6338 27.315 17.61C27.3697 17.5873 27.4283 17.5756 27.4875 17.5756C27.5467 17.5756 27.6053 17.5873 27.66 17.61C27.7382 17.6336 27.81 17.6746 27.87 17.73C27.9263 17.7906 27.9697 17.862 27.9975 17.94C28.0575 18.21 28.1175 18.45 28.17 18.69C28.2225 18.93 28.275 19.1325 28.32 19.3425C28.365 19.5525 28.425 19.7775 28.485 20.0025C28.545 20.2275 28.5975 20.4825 28.6575 20.7525L29.31 18.5025C29.3249 18.4514 29.3507 18.4041 29.3857 18.364C29.4206 18.3238 29.4639 18.2918 29.5125 18.27C29.5646 18.2477 29.6208 18.2362 29.6775 18.2362C29.7342 18.2362 29.7903 18.2477 29.8425 18.27C29.95 18.2987 30.0417 18.3688 30.0975 18.465C30.1379 18.5635 30.1379 18.674 30.0975 18.7725L29.085 22.245C29.0683 22.3005 29.0402 22.352 29.0026 22.3961C28.965 22.4402 28.9187 22.4761 28.8666 22.5015C28.8145 22.5268 28.7576 22.5411 28.6997 22.5435C28.6418 22.5458 28.584 22.5361 28.53 22.515L28.5675 22.5Z" fill="url(#paint16_linear_47_36)"/>
<path d="M31.5 23.4375L33.1575 20.6925L32.595 20.355C32.546 20.3281 32.5028 20.2917 32.4681 20.2479C32.4333 20.2041 32.4076 20.1538 32.3925 20.1C32.3778 20.0514 32.3735 20.0001 32.3799 19.9497C32.3864 19.8993 32.4035 19.8508 32.43 19.8075C32.4526 19.7664 32.4864 19.7326 32.5275 19.71C32.5699 19.6795 32.6186 19.659 32.67 19.65C32.7245 19.6389 32.7806 19.6389 32.835 19.65C32.893 19.6561 32.9492 19.6739 33 19.7025L34.8525 20.82C34.9449 20.8801 35.0137 20.9701 35.0475 21.075C35.0713 21.1228 35.0837 21.1754 35.0837 21.2287C35.0837 21.2821 35.0713 21.3347 35.0475 21.3825C35.0212 21.4267 34.9853 21.4645 34.9425 21.493C34.8996 21.5216 34.851 21.5402 34.8 21.5475C34.6888 21.5696 34.5734 21.5481 34.4775 21.4875L33.9225 21.15L32.265 23.895C32.2379 23.9408 32.201 23.9801 32.1569 24.0099C32.1128 24.0397 32.0626 24.0594 32.01 24.0675C31.9022 24.0922 31.789 24.0733 31.695 24.015C31.5955 23.9577 31.5227 23.8633 31.4925 23.7525C31.4692 23.703 31.4578 23.6488 31.4591 23.5941C31.4604 23.5394 31.4744 23.4858 31.5 23.4375Z" fill="url(#paint17_linear_47_36)"/>
<path d="M27.57 38.52C28.32 37.11 30.2625 35.1225 34.1775 36.405C38.6775 37.905 47.2725 46.23 51.3225 50.85C56.775 57.075 65.955 72.0975 73.5 77.55C80.4975 82.6875 85.245 84.7425 91.665 86.6625C90.8325 87.63 87.5625 90.4125 77.0325 85.2525C69.135 81.405 44.55 60.6075 37.815 55.02C30.6525 49.245 24.615 43.5975 27.57 38.52Z" fill="url(#paint18_linear_47_36)"/>
<path d="M57.6075 45.75C57.6075 45.75 57.5475 44.595 58.125 45.3C58.7025 46.005 64.5 60.345 67.9425 60.6675C68.4502 60.7245 68.9622 60.6071 69.3943 60.3345C69.8264 60.0619 70.1529 59.6503 70.32 59.1675C70.7025 58.2 70.9575 58.7775 71.025 59.4225C71.1525 60.3825 71.22 64.7475 67.755 64.7475C64.9875 64.7475 63.45 61.2825 62.55 59.745C60.24 55.5975 57.6075 45.75 57.6075 45.75Z" fill="url(#paint19_linear_47_36)"/>
<path d="M35.655 87.435H69.4875" stroke="#2B2D42" stroke-width="1.46" stroke-linecap="round" stroke-linejoin="round"/>
<path d="M15.12 87.435H28.62" stroke="#2B2D42" stroke-width="1.46" stroke-linecap="round" stroke-linejoin="round"/>
<path d="M48.1125 24.7875C48.4404 22.9473 49.0688 21.1736 49.9725 19.5375C50.4825 18.705 51.255 17.6775 52.3425 17.745C53.6925 17.805 53.6325 19.245 53.2425 20.1825C52.2858 22.7422 50.7238 25.0324 48.69 26.8575" stroke="#2B2D42" stroke-width="1.46" stroke-linecap="round" stroke-linejoin="round"/>
<path d="M29.8125 34.155C29.0403 34.4845 28.3646 35.0051 27.849 35.6676C27.3334 36.3302 26.9948 37.113 26.865 37.9425C26.61 39.4425 27.615 41.475 29.43 43.785C35.7225 51.81 51.6375 63.3675 57.93 68.76" stroke="#2B2D42" stroke-width="1.46" stroke-linecap="round" stroke-linejoin="round"/>
<path d="M77.7675 49.8825C76.5124 46.3463 75.0318 42.8942 73.335 39.5475C72.8439 38.4791 72.1335 37.526 71.25 36.75C69 35.0175 65.79 35.85 63 36.1725C59.595 36.555 55.875 36.1725 54.525 34.44C52.7925 32.0625 55.8075 28.53 54.4575 25.8975C53.4975 24.0375 51.12 24.105 49.3275 24.4875C46.635 25.0425 38.25 30 34.89 33.5175" stroke="#2B2D42" stroke-width="1.46" stroke-linecap="round" stroke-linejoin="round"/>
<path d="M63 73.125C69.165 78.375 75.645 83.8425 83.5425 85.9575C84.9974 86.4073 86.5319 86.5403 88.0425 86.3475C88.7955 86.2375 89.5084 85.9383 90.1144 85.4779C90.7203 85.0175 91.1997 84.411 91.5075 83.715C92.475 81.3375 90.7575 78.8325 89.325 76.7775C84.825 70.23 82.2675 62.7225 79.575 55.215" stroke="#2B2D42" stroke-width="1.46" stroke-linecap="round" stroke-linejoin="round"/>
<path d="M62.295 28.635C66.4725 28.32 70.77 31.9125 70.6425 36.405" stroke="#2B2D42" stroke-width="1.46" stroke-linecap="round" stroke-linejoin="round"/>
<path d="M59.6625 31.08C59.6797 30.693 59.7805 30.3144 59.9578 29.97C60.1352 29.6257 60.385 29.3237 60.69 29.085C61.1355 28.7921 61.6568 28.6357 62.19 28.635" stroke="#2B2D42" stroke-width="1.46" stroke-linecap="round" stroke-linejoin="round"/>
<path d="M37.7775 36.2775C42.075 39.36 49.2675 45.2775 53.6325 50.5875C58.83 56.88 63.45 65.0325 69 70.9425C70.4082 72.4681 71.9112 73.9034 73.5 75.24C78.5025 79.4775 87.3675 83.97 95.4525 85.635" stroke="#2B2D42" stroke-width="1.46" stroke-linecap="round" stroke-linejoin="round"/>
<path d="M69.615 62.4C70.9575 61.245 71.115 59.13 71.025 57.525C71.025 57.0075 70.4475 57.0075 70.1925 57.33C69.903 57.7636 69.5575 58.157 69.165 58.5C68.8789 58.7049 68.5439 58.8308 68.1937 58.8651C67.8434 58.8993 67.4903 58.8407 67.17 58.695C65.9696 57.8917 64.998 56.7908 64.35 55.5C62.0546 51.9039 60.0771 48.1146 58.44 44.175C58.3302 43.7554 58.1363 43.3624 57.87 43.02C57.4125 42.6975 57.12 43.2075 57.225 43.5975C57.4319 44.5569 57.7101 45.4995 58.0575 46.4175C58.7025 48.4725 59.34 50.5275 60.1125 52.515C60.8149 54.4536 61.6519 56.3407 62.6175 58.1625C63.3458 59.625 64.3228 60.9497 65.505 62.0775" stroke="#2B2D42" stroke-width="1.46" stroke-linecap="round" stroke-linejoin="round"/>
<path d="M36.1725 25.7475C40.725 28.32 49.7775 40.7475 49.7775 50.205" stroke="#2B2D42" stroke-width="1.46" stroke-linecap="round" stroke-linejoin="round"/>
<path d="M71.0925 44.685C70.575 44.8125 70.4475 44.3625 70.2525 43.98C70.0575 43.5975 69.87 43.02 69.675 42.57C69.48 42.12 69.36 41.82 69.8025 41.5425C70.1351 41.3877 70.4785 41.2573 70.83 41.1525C71.3475 41.025 71.58 41.415 71.6625 41.9025" stroke="#2B2D42" stroke-width="1.46" stroke-linecap="round" stroke-linejoin="round"/>
<path d="M74.685 53.67C74.175 53.7975 74.04 53.3475 73.8525 52.965C73.665 52.5825 73.4625 52.005 73.275 51.555C73.0875 51.105 72.9525 50.805 73.4025 50.5275C73.7328 50.3694 74.0767 50.2414 74.43 50.145C74.94 50.01 75.135 50.4 75.2625 50.85" stroke="#2B2D42" stroke-width="1.46" stroke-linecap="round" stroke-linejoin="round"/>
<path d="M78.405 62.655C77.895 62.79 77.7675 62.34 77.5725 61.95C77.3775 61.56 77.19 60.99 76.995 60.54C76.8 60.09 76.6725 59.79 77.1225 59.5125C77.4533 59.3556 77.7971 59.2276 78.15 59.13C78.66 59.0025 78.855 59.385 78.9825 59.835" stroke="#2B2D42" stroke-width="1.46" stroke-linecap="round" stroke-linejoin="round"/>
<path d="M67.17 33L66 41.6025C65.9006 42.3704 65.9641 43.1507 66.1864 43.8924C66.4086 44.6342 66.7847 45.3208 67.29 45.9075L68.1825 46.935C69.1284 48.0125 69.6132 49.4185 69.5325 50.85C69.4769 51.7406 69.6423 52.6311 70.0139 53.4423C70.3855 54.2536 70.9518 54.9604 71.6625 55.5L72.2475 55.95C73.4213 56.8706 74.1819 58.2192 74.3625 59.7L74.49 60.9225C74.5782 61.898 74.9374 62.8293 75.5272 63.6113C76.117 64.3933 76.9138 64.9947 77.8275 65.3475" stroke="#2B2D42" stroke-width="1.46" stroke-linecap="round" stroke-linejoin="round"/>
<path d="M86.3025 36V38.76" stroke="url(#paint20_linear_47_36)" stroke-width="1.46" stroke-linecap="round" stroke-linejoin="round"/>
<path d="M84.8925 37.365H87.6525" stroke="url(#paint21_linear_47_36)" stroke-width="1.46" stroke-linecap="round" stroke-linejoin="round"/>
<path d="M81.36 39.4875C81.5132 39.4875 81.6601 39.4267 81.7684 39.3184C81.8767 39.2101 81.9375 39.0632 81.9375 38.91C81.9375 38.7568 81.8767 38.61 81.7684 38.5017C81.6601 38.3933 81.5132 38.3325 81.36 38.3325C81.2068 38.3325 81.0599 38.3933 80.9516 38.5017C80.8433 38.61 80.7825 38.7568 80.7825 38.91C80.7825 39.0632 80.8433 39.2101 80.9516 39.3184C81.0599 39.4267 81.2068 39.4875 81.36 39.4875Z" fill="url(#paint22_linear_47_36)"/>
<path d="M83.25 33.2625C83.4032 33.2625 83.55 33.2017 83.6583 33.0934C83.7667 32.9851 83.8275 32.8382 83.8275 32.685C83.8275 32.5318 83.7667 32.3849 83.6583 32.2766C83.55 32.1683 83.4032 32.1075 83.25 32.1075C83.0968 32.1075 82.9499 32.1683 82.8416 32.2766C82.7333 32.3849 82.6725 32.5318 82.6725 32.685C82.6725 32.8382 82.7333 32.9851 82.8416 33.0934C82.9499 33.2017 83.0968 33.2625 83.25 33.2625Z" fill="url(#paint23_linear_47_36)"/>
</g>
<defs>
<linearGradient id="paint0_linear_47_36" x1="29.7038" y1="55.139" x2="29.7038" y2="60.131" gradientUnits="userSpaceOnUse">
<stop stop-color="#FC6076"/>
<stop offset="1" stop-color="#FF9A44"/>
</linearGradient>
<linearGradient id="paint1_linear_47_36" x1="25.6247" y1="56.541" x2="25.6247" y2="60.9204" gradientUnits="userSpaceOnUse">
<stop stop-color="#FC6076"/>
<stop offset="1" stop-color="#FF9A44"/>
</linearGradient>
<linearGradient id="paint2_linear_47_36" x1="21.5546" y1="56.6808" x2="21.5546" y2="61.1852" gradientUnits="userSpaceOnUse">
<stop stop-color="#FC6076"/>
<stop offset="1" stop-color="#FF9A44"/>
</linearGradient>
<linearGradient id="paint3_linear_47_36" x1="16.8434" y1="55.784" x2="16.8434" y2="60.4488" gradientUnits="userSpaceOnUse">
<stop stop-color="#FC6076"/>
<stop offset="1" stop-color="#FF9A44"/>
</linearGradient>
<linearGradient id="paint4_linear_47_36" x1="13.0389" y1="55.4154" x2="13.0389" y2="56.9348" gradientUnits="userSpaceOnUse">
<stop stop-color="#FC6076"/>
<stop offset="1" stop-color="#FF9A44"/>
</linearGradient>
<linearGradient id="paint5_linear_47_36" x1="9.26671" y1="51.1284" x2="9.26671" y2="56.1077" gradientUnits="userSpaceOnUse">
<stop stop-color="#FC6076"/>
<stop offset="1" stop-color="#FF9A44"/>
</linearGradient>
<linearGradient id="paint6_linear_47_36" x1="5.86109" y1="47.722" x2="5.86109" y2="51.9574" gradientUnits="userSpaceOnUse">
<stop stop-color="#FC6076"/>
<stop offset="1" stop-color="#FF9A44"/>
</linearGradient>
<linearGradient id="paint7_linear_47_36" x1="3.92564" y1="43.2713" x2="3.92564" y2="46.5" gradientUnits="userSpaceOnUse">
<stop stop-color="#FC6076"/>
<stop offset="1" stop-color="#FF9A44"/>
</linearGradient>
<linearGradient id="paint8_linear_47_36" x1="2.75175" y1="39.067" x2="2.75175" y2="42.0785" gradientUnits="userSpaceOnUse">
<stop stop-color="#FC6076"/>
<stop offset="1" stop-color="#FF9A44"/>
</linearGradient>
<linearGradient id="paint9_linear_47_36" x1="2.93096" y1="34.0164" x2="2.93096" y2="37.0023" gradientUnits="userSpaceOnUse">
<stop stop-color="#FC6076"/>
<stop offset="1" stop-color="#FF9A44"/>
</linearGradient>
<linearGradient id="paint10_linear_47_36" x1="4.356" y1="30.921" x2="4.356" y2="33.1433" gradientUnits="userSpaceOnUse">
<stop stop-color="#FC6076"/>
<stop offset="1" stop-color="#FF9A44"/>
</linearGradient>
<linearGradient id="paint11_linear_47_36" x1="6.146" y1="25.8413" x2="6.146" y2="30.0681" gradientUnits="userSpaceOnUse">
<stop stop-color="#FC6076"/>
<stop offset="1" stop-color="#FF9A44"/>
</linearGradient>
<linearGradient id="paint12_linear_47_36" x1="9.13149" y1="23.3023" x2="9.13149" y2="26.7383" gradientUnits="userSpaceOnUse">
<stop stop-color="#FC6076"/>
<stop offset="1" stop-color="#FF9A44"/>
</linearGradient>
<linearGradient id="paint13_linear_47_36" x1="12.8532" y1="19.4371" x2="12.8532" y2="24.1125" gradientUnits="userSpaceOnUse">
<stop stop-color="#FC6076"/>
<stop offset="1" stop-color="#FF9A44"/>
</linearGradient>
<linearGradient id="paint14_linear_47_36" x1="17.785" y1="17.3015" x2="17.785" y2="22.3651" gradientUnits="userSpaceOnUse">
<stop stop-color="#FC6076"/>
<stop offset="1" stop-color="#FF9A44"/>
</linearGradient>
<linearGradient id="paint15_linear_47_36" x1="23.2743" y1="17.0849" x2="23.2743" y2="21.4578" gradientUnits="userSpaceOnUse">
<stop stop-color="#FC6076"/>
<stop offset="1" stop-color="#FF9A44"/>
</linearGradient>
<linearGradient id="paint16_linear_47_36" x1="28.1045" y1="17.5756" x2="28.1045" y2="22.5438" gradientUnits="userSpaceOnUse">
<stop stop-color="#FC6076"/>
<stop offset="1" stop-color="#FF9A44"/>
</linearGradient>
<linearGradient id="paint17_linear_47_36" x1="33.2713" y1="19.6417" x2="33.2713" y2="24.0781" gradientUnits="userSpaceOnUse">
<stop stop-color="#FC6076"/>
<stop offset="1" stop-color="#FF9A44"/>
</linearGradient>
<linearGradient id="paint18_linear_47_36" x1="59.2337" y1="35.9921" x2="59.2337" y2="88.2826" gradientUnits="userSpaceOnUse">
<stop stop-color="#FC6076"/>
<stop offset="1" stop-color="#FF9A44"/>
</linearGradient>
<linearGradient id="paint19_linear_47_36" x1="64.3368" y1="45.072" x2="64.3368" y2="64.7475" gradientUnits="userSpaceOnUse">
<stop stop-color="#FC6076"/>
<stop offset="1" stop-color="#FF9A44"/>
</linearGradient>
<linearGradient id="paint20_linear_47_36" x1="86.8025" y1="36" x2="86.8025" y2="38.76" gradientUnits="userSpaceOnUse">
<stop stop-color="#FC6076"/>
<stop offset="1" stop-color="#FF9A44"/>
</linearGradient>
<linearGradient id="paint21_linear_47_36" x1="86.2725" y1="37.365" x2="86.2725" y2="38.365" gradientUnits="userSpaceOnUse">
<stop stop-color="#FC6076"/>
<stop offset="1" stop-color="#FF9A44"/>
</linearGradient>
<linearGradient id="paint22_linear_47_36" x1="81.36" y1="38.3325" x2="81.36" y2="39.4875" gradientUnits="userSpaceOnUse">
<stop stop-color="#FC6076"/>
<stop offset="1" stop-color="#FF9A44"/>
</linearGradient>
<linearGradient id="paint23_linear_47_36" x1="83.25" y1="32.1075" x2="83.25" y2="33.2625" gradientUnits="userSpaceOnUse">
<stop stop-color="#FC6076"/>
<stop offset="1" stop-color="#FF9A44"/>
</linearGradient>
<clipPath id="clip0_47_36">
<rect width="96.0225" height="96" fill="white"/>
</clipPath>
</defs>
</svg>
